<?xml version="1.0" encoding="utf-8"?>
<svg width="180px" height="180px" viewBox="0 0 180 180" version="1.1" xmlns:xlink="http://www.w3.org/1999/xlink" xmlns="http://www.w3.org/2000/svg">
  <desc>Created with Lunacy</desc>
  <defs>
    <path d="M0 0L180 0L180 180L0 180L0 0L0 0Z" id="path_1" />
    <clipPath id="mask_1">
      <use xlink:href="#path_1" />
    </clipPath>
  </defs>
  <g id="extra">
    <g id="Mask-group">
      <path d="M0 0L180 0L180 180L0 180L0 0L0 0Z" id="path_1" fill="none" stroke="none" />
      <g clip-path="url(#mask_1)">
        <g id="Group" transform="translate(6.1035156E-05 0)">
          <g id="Group">
            <path d="M12.7631 0.772058C11.733 -0.257353 10.0637 -0.257353 9.03394 0.772058L0.772319 9.03333C-0.25744 10.0634 -0.25744 11.7327 0.772319 12.7625L21.885 33.8752C22.9155 34.9049 24.5844 34.9046 25.6141 33.8752L33.8754 25.6139C34.9052 24.5838 34.9052 22.9145 33.8754 21.8848C32.8453 20.8553 31.176 20.8553 30.1463 21.8848L23.7498 28.2816L16.9225 21.4544L22.8606 15.5164C23.8904 14.4862 23.8904 12.817 22.8606 11.7872C21.8305 10.7578 20.1612 10.7578 19.1315 11.7872L13.1934 17.7253L6.3662 10.8981L12.7631 4.50156C13.7925 3.47146 13.7925 1.80218 12.7631 0.772068L12.7631 0.772058L12.7631 0.772058Z" transform="translate(32.47946 112.872665)" id="Shape" fill="#FFFFFF" stroke="none" />
            <path d="M34.78 23.4738C36.2275 23.6601 37.5466 22.6377 37.7325 21.1959C37.9189 19.7517 36.899 18.4297 35.4547 18.2434L22.0154 16.5098C23.5026 14.7066 24.3119 12.4639 24.3116 10.096C24.3116 7.39772 23.2611 4.86112 21.3531 2.95348C17.4144 -0.984493 11.0063 -0.984493 7.0676 2.95348L0.772319 9.24876C-0.25744 10.2789 -0.25744 11.9481 0.772319 12.9779L21.885 34.0906C22.9155 35.1203 24.5844 35.12 25.6142 34.0906C26.6439 33.0605 26.6439 31.3912 25.6142 30.3614L16.9222 21.6695L17.3645 21.2272L34.78 23.4738ZM13.1938 17.9407L6.36658 11.1135L10.7978 6.68263C12.6801 4.79996 15.7427 4.8003 17.625 6.68263C18.537 7.59426 19.039 8.80649 19.039 10.096C19.039 11.3856 18.5366 12.5978 17.625 13.5095L13.1938 17.9407Z" transform="translate(86.94803 58.187973)" id="Shape#1" fill="#FFFFFF" fill-rule="evenodd" stroke="none" />
            <path d="M0.772117 0.772939C-0.00240041 1.54746 -0.217209 2.72101 0.23245 3.72018L13.3437 32.8343C13.942 34.1626 15.5034 34.7536 16.8309 34.1559C18.1585 33.5579 18.7502 31.9965 18.1525 30.6686L15.657 25.1271C15.6595 25.1247 15.662 25.1229 15.6641 25.1205L25.1274 15.6572L30.6689 18.1526C31.9946 18.75 33.5577 18.159 34.1558 16.8307C34.7534 15.5032 34.1621 13.9418 32.8338 13.3438L3.71935 0.232578C2.72053 -0.217436 1.54733 -0.00227284 0.772117 0.772947L0.772117 0.772939ZM19.9845 13.3413L13.3412 19.9847L7.89813 7.89864L19.9845 13.3413Z" transform="translate(112.443634 41.169434)" id="Shape#2" fill="#FFFFFF" fill-rule="evenodd" stroke="none" />
            <path d="M30.4307 33.0669C31.1054 33.0669 31.7804 32.8095 32.2954 32.2948C33.3252 31.2647 33.3252 29.5954 32.2954 28.5657L13.0475 9.31775L17.8641 4.50119C18.8938 3.47109 18.8938 1.80181 17.8641 0.772054C16.834 -0.257351 15.1647 -0.257351 14.1349 0.772054L0.772319 14.1347C-0.25744 15.1648 -0.25744 16.834 0.772319 17.8638C1.28737 18.3785 1.96239 18.6359 2.63706 18.6359C3.31174 18.6359 3.98676 18.3785 4.50181 17.8638L9.31837 13.0472L28.5663 32.2952C29.081 32.8095 29.756 33.0669 30.4307 33.0669L30.4307 33.0669L30.4307 33.0669Z" transform="translate(66.98392 73.26756)" id="Shape#3" fill="#FFFFFF" stroke="none" />
            <path d="M39.4243 24.3513C39.7558 22.9334 38.8755 21.5148 37.4576 21.1829L21.9416 17.5529L18.3116 2.03689C17.9797 0.618997 16.5608 -0.262404 15.1432 0.0701891C13.7253 0.401721 12.845 1.82068 13.1765 3.23857L16.212 16.2123L3.23824 13.1772C1.82034 12.8446 0.401387 13.7257 0.0698553 15.1439C-0.261676 16.5618 0.618664 17.9804 2.03656 18.3123L17.5526 21.9423L21.1825 37.4583C21.5144 38.8765 22.9334 39.7569 24.3509 39.425C25.7688 39.0934 26.6492 37.6745 26.3176 36.2566L23.2821 23.2828L36.2559 26.318C37.6735 26.6502 39.0928 25.7692 39.4243 24.3513L39.4243 24.3513L39.4243 24.3513Z" transform="translate(47.799988 92.70514)" id="Shape#4" fill="#FFFFFF" stroke="none" />
            <path d="M16.9077 16.9077C20.7701 13.045 20.7701 6.75988 16.9077 2.89679C13.0446 -0.965597 6.76023 -0.965597 2.89679 2.89679C-0.965596 6.75953 -0.965596 13.0446 2.89679 16.9077C6.76024 20.7704 13.0443 20.7704 16.9077 16.9077ZM6.62629 6.62628C8.43268 4.81919 11.3725 4.81954 13.1786 6.62628C14.9853 8.43266 14.9853 11.3722 13.1786 13.1786C11.3725 14.9853 8.43233 14.9853 6.62629 13.1786C4.81956 11.3722 4.81956 8.43266 6.62629 6.62628Z" transform="translate(144.0433 16.15181)" id="Shape#5" fill="#FFFFFF" fill-rule="evenodd" stroke="none" />
            <path d="M52.6262 2.6368C52.6262 1.18023 51.446 0 49.9894 0C48.5329 0 47.3526 1.18023 47.3526 2.6368L47.3526 22.8196C47.353 24.8141 46.576 26.6897 45.1651 28.1006L0.772315 72.493C-0.257439 73.5232 -0.257439 75.1924 0.772315 76.2222C1.28737 76.7369 1.9624 76.9942 2.63706 76.9942C3.31172 76.9942 3.98675 76.7369 4.5018 76.2222L48.8946 31.829C51.3015 29.4218 52.6266 26.2218 52.6262 22.8189L52.6262 2.6368L52.6262 2.6368Z" transform="translate(127.37375 36.33232)" id="Shape#6" fill="#FFFFFF" stroke="none" />
            <path d="M180 12.7417C180.001 5.70006 174.301 0 167.258 0L120.848 0C117.444 0 114.244 1.32543 111.838 3.7316L3.72593 111.844C-1.24215 116.812 -1.2418 124.896 3.72593 129.864L50.1361 176.274C55.1035 181.241 63.1883 181.242 68.1563 176.274L123.174 121.256C124.204 120.226 124.204 118.556 123.174 117.526C122.145 116.497 120.475 116.497 119.445 117.526L64.4269 172.545C61.5151 175.457 56.7766 175.456 53.8649 172.545L7.45508 126.135C4.54299 123.223 4.54299 118.485 7.45508 115.573L115.567 7.46111C116.978 6.05024 118.853 5.27362 120.848 5.27362L167.258 5.27362C171.385 5.27362 174.726 8.61322 174.726 12.7417L174.726 26.6641C174.726 28.1206 175.906 29.3009 177.363 29.3009C178.819 29.3009 180 28.1206 180 26.6641L180 12.7417L180 12.7417L180 12.7417Z" id="Shape#7" fill="#FFFFFF" stroke="none" />
          </g>
        </g>
      </g>
    </g>
  </g>
</svg>