<?xml version="1.0" encoding="utf-8"?>
<svg width="168px" height="181px" viewBox="0 0 168 181" version="1.1" xmlns:xlink="http://www.w3.org/1999/xlink" xmlns="http://www.w3.org/2000/svg">
  <desc>Created with Lunacy</desc>
  <g id="grocery">
    <g id="Group">
      <path d="M0 1.85742L5.70557 0L11.5649 18.0015L5.85938 19.8574L0 1.85742L0 1.85742L0 1.85742Z" transform="translate(137.93997 26.069916)" id="Shape" fill="#FFFFFF" stroke="none" />
      <path d="M0 1.85742L5.70557 0L11.5664 17.9985L5.86084 19.8574L0 1.85742L0 1.85742L0 1.85742Z" transform="translate(129.14651 47.072845)" id="Shape#1" fill="#FFFFFF" stroke="none" />
      <path d="M9.01758 57.6812C8.38477 62.2647 9.72217 66.9024 12.7017 70.443L17.0332 75.8761L17.0332 126L23.0332 126L23.0332 80.6075L27.3677 83.4962C28.377 84.1685 29.6895 84.1685 30.6987 83.4962L38.0332 78.6007L45.3677 83.4903C46.377 84.1627 47.6895 84.1627 48.6987 83.4903L56.0332 78.6007L63.3677 83.4903C64.377 84.1627 65.6895 84.1627 66.6987 83.4903L74.0332 78.6007L81.3677 83.4903C82.377 84.1627 83.6895 84.1627 84.6987 83.4903L92.0332 78.6007L98.0332 82.5997L98.0332 174L32.0332 174L32.0332 180L116.033 180C124.314 179.99 131.023 173.281 131.033 165L131.033 75.0001C131.026 74.3409 130.799 73.7022 130.389 73.1852L147.725 27.0308C150.059 20.8302 149.205 13.8809 145.44 8.43026C141.863 3.14218 135.889 -0.0189574 129.507 8.55503e-05C121.371 0.0762574 114.125 5.15927 111.284 12.7838L106.581 25.3053L101.033 19.7579L101.033 9.00009C101.033 7.34335 99.6899 6.00009 98.0332 6.00009L65.0332 6.00009C63.3765 6.00009 62.0332 7.34335 62.0332 9.00009L62.0332 14.1475C58.6421 11.0743 53.5269 10.9 49.9336 13.7374L49.9336 9.00009C49.9336 4.08993 45.9536 0.108484 41.042 0.108484C36.1318 0.108484 32.1504 4.08993 32.1504 9.00009L32.1504 13.7403C30.5083 12.3795 28.4414 11.6353 26.3086 11.6397C23.833 11.6339 21.46 12.6329 19.7329 14.4098C16.1748 18.0763 16.1528 23.9005 19.6816 27.5948L22.4751 30.4776C21.4585 30.9434 20.5356 31.5909 19.752 32.3878L19.7329 32.3995L19.7036 32.4303C19.0049 33.148 18.4263 33.9742 17.9927 34.878L14.5737 28.5631L9.2959 31.4195L17.0537 45.7384C16.7065 45.9361 16.3579 46.128 16.0283 46.3536C15.9053 46.4371 15.7969 46.5338 15.6768 46.6173L4.06787 35.9195L0 40.3316L11.5313 50.9635C10.207 52.9894 9.34863 55.2833 9.01758 57.6812ZM24.0146 18.6183C24.6167 17.9972 25.4443 17.6456 26.3086 17.6456C27.1743 17.6471 28.002 17.9972 28.604 18.6183L33.0088 23.1183C33.8643 23.9913 35.1636 24.2564 36.293 23.7921C37.4224 23.3263 38.1577 22.2218 38.1504 21.0001L38.1504 9.00008C38.1021 7.93513 38.6426 6.93025 39.5566 6.38386C40.4722 5.83601 41.6133 5.83601 42.5273 6.38386C43.4429 6.93025 43.9834 7.93513 43.9336 9.00008L43.9336 21.0001C43.9351 22.2174 44.6719 23.3131 45.7998 23.773C46.9263 24.2345 48.2197 23.9679 49.0737 23.1007L53.4917 18.6007C54.7573 17.3541 56.7876 17.3541 58.0518 18.6007C59.3555 19.9351 59.3555 22.065 58.0518 23.3995L49.2144 32.3995L49.3037 32.4903L47.9121 33.8819C47.6704 34.131 47.4756 34.421 47.3335 34.7374C47.291 34.8297 47.2676 34.9234 47.2339 35.0186C47.1445 35.275 47.0903 35.5416 47.0728 35.8111C47.0728 35.877 47.0361 35.9312 47.0361 35.9972L47.0361 62.4596C46.3535 63.1129 45.7192 63.8145 45.1406 64.5602L39.4731 52.5001C37.3813 48.3385 33.6006 45.2769 29.0933 44.1007C28.0444 43.8297 26.9692 43.6656 25.8867 43.6143L25.1177 42.7135C24.5186 42.0265 24.0659 41.4903 23.9927 41.4156C23.2178 40.6041 22.8823 39.4674 23.0933 38.3643C23.2046 37.7374 23.4932 37.1573 23.9238 36.69L23.978 36.6388L24.0527 36.5582C25.1396 35.4933 26.8228 35.3365 28.0884 36.1803C29.3613 37.0313 31.0693 36.7867 32.0537 35.6148C33.0381 34.4415 32.981 32.7174 31.9219 31.6114L23.9927 23.4273C22.7051 22.0797 22.7153 19.9542 24.0146 18.6183ZM116.9 14.8917C118.856 9.6036 123.869 6.06893 129.507 6.00009C133.916 5.9913 138.04 8.17831 140.508 11.8316C143.156 15.6681 143.754 20.5592 142.109 24.9215L123.533 74.3995L119.033 77.3995L111.699 72.5099C110.689 71.8375 109.377 71.8375 108.368 72.5099L101.033 77.3995L94.9468 73.3419L116.9 14.8917ZM68.0332 12.0001L95.0332 12.0001L95.0332 18.0001L68.0332 18.0001L68.0332 12.0001ZM90.791 24.0001L66.2754 24.0001L57.2754 33.0001L81.791 33.0001L90.791 24.0001ZM88.3433 73.8546L104.265 31.4737L98.0332 25.2423L86.0332 37.2423L86.0332 75.3956L88.3433 73.8546ZM80.0332 75.3956L79.9761 75.3575C79.6157 69.0514 76.2188 63.3121 70.8633 59.962C65.5093 56.6119 58.8618 56.067 53.0332 58.5001L53.0332 39.0001L80.0332 39.0001L80.0332 75.3956ZM19.3916 51.3385C16.9644 52.9879 15.3545 55.5924 14.9634 58.5001C14.5635 61.4239 15.4248 64.38 17.3335 66.63L18 67.4605L25.7988 61.4283L29.4712 66.1744L21.7368 72.1539L22.3799 72.9596L29.0332 77.3995L36.3809 72.5128C37.3887 71.8404 38.7026 71.8404 39.7104 72.5128L41.291 73.5689C41.3994 72.8497 41.5488 72.1378 41.7378 71.4361L34.0913 55.1485C32.7788 52.5558 30.4146 50.6529 27.6021 49.9234C24.7881 49.1954 21.7983 49.711 19.3916 51.3385ZM65.0332 77.3995L72.3677 72.504C72.6372 72.3311 72.9316 72.2037 73.2407 72.1231C71.1138 65.8814 64.7798 62.0992 58.2759 63.1876C51.7734 64.2745 47.0142 69.9127 47.0332 76.506C47.0332 76.7945 47.0845 77.0553 47.1021 77.3556L54.3677 72.5099C55.377 71.8375 56.6895 71.8375 57.6987 72.5099L65.0332 77.3995ZM116.033 174C121.003 174 125.033 169.97 125.033 165L125.033 80.6075L120.699 83.4903C119.689 84.1627 118.377 84.1627 117.368 83.4903L110.033 78.6007L104.033 82.6056L104.033 174L116.033 174Z" transform="translate(18.966797 0)" id="Shape#2" fill="#FFFFFF" fill-rule="evenodd" stroke="none" />
      <path d="M18.5127 60C13.3813 60.0176 8.68506 57.1157 6.40576 52.5176L5.3584 50.4243C1.84424 43.374 0.0102539 35.606 0 27.7295C0.0102539 19.0459 7.0459 12.0103 15.7295 12C18.6563 12.0088 21.5229 12.8394 24 14.3994L24 12C24 8.68652 21.3135 6 18 6L18 0C24.627 0 30 5.37305 30 12L30 14.3994C32.4771 12.8394 35.3438 12.0088 38.2705 12C46.9541 12.0103 53.9897 19.0459 54 27.7295C53.9883 35.6045 52.1543 43.3696 48.6416 50.4185L47.5957 52.5176C45.3149 57.1157 40.6201 60.0176 35.4873 60C33.3867 59.9971 31.3154 59.5078 29.436 58.5718L27 57.3545L24.5669 58.5718C22.686 59.5078 20.6147 59.9971 18.5127 60ZM22.6084 20.8506C20.7876 19.0195 18.3105 17.9927 15.7295 18C10.3594 18.0073 6.00732 22.3594 6 27.7295C6.00879 34.6729 7.62598 41.5195 10.7256 47.7334L11.7715 49.8325C13.0415 52.3931 15.6563 54.0088 18.5127 54C19.6831 53.9985 20.8374 53.7261 21.8848 53.2046L25.6597 51.3149C26.5034 50.8931 27.4966 50.8931 28.3418 51.3149L32.1182 53.2046C33.1655 53.7261 34.3184 53.9985 35.4873 54C38.3423 54.0103 40.9556 52.3989 42.2285 49.8428L43.2744 47.7422C46.3755 41.5254 47.9927 34.6758 48 27.7295C48 23.7949 45.6299 20.2471 41.9941 18.7412C38.3584 17.2354 34.1748 18.0674 31.3916 20.8506L29.1211 23.1211C27.9492 24.2915 26.0508 24.2915 24.8789 23.1211L22.6084 20.8506Z" transform="translate(0 120.00009)" id="Shape#3" fill="#FFFFFF" fill-rule="evenodd" stroke="none" />
    </g>
  </g>
</svg>