<?xml version="1.0" encoding="utf-8"?>
<svg width="170px" height="180px" viewBox="0 0 170 180" version="1.1" xmlns:xlink="http://www.w3.org/1999/xlink" xmlns="http://www.w3.org/2000/svg">
  <desc>Created with Lunacy</desc>
  <g id="tax">
    <g id="Group#1">
      <path d="M1.15395 51.3944C2.31365 52.1814 4.02951 51.8439 4.80919 50.6947L36.4298 4.10963C37.2463 2.90712 36.9333 1.27056 35.7304 0.454392C34.5283 -0.36143 32.8914 -0.0491374 32.0752 1.15407L0.454624 47.7391C-0.361899 48.9413 -0.04855 50.5782 1.15395 51.3944L1.15395 51.3944L1.15395 51.3944L1.15395 51.3944Z" transform="translate(89.2771 36.27594)" id="Shape" fill="#FFFFFF" stroke="none" />
      <path d="M19.8647 12.1504C19.8647 18.8822 15.4087 24.3586 9.93234 24.3586C4.45562 24.3586 0 18.8822 0 12.1504C0.559319 -4.0482 19.3036 -4.05206 19.8647 12.1504ZM14.6013 12.1504C14.6013 8.38564 12.4633 5.20551 9.93235 5.20551C7.40172 5.20551 5.26303 8.38564 5.26303 12.1504C5.26303 15.9151 7.40136 19.0952 9.93235 19.0952C12.4633 19.0952 14.6013 15.9151 14.6013 12.1504Z" transform="translate(114.91312 63.76581)" id="Shape#1" fill="#FFFFFF" fill-rule="evenodd" stroke="none" />
      <path d="M9.87698 0C15.3537 0 19.8093 5.47637 19.8093 12.2082C19.8093 18.9397 15.3537 24.4164 9.87698 24.4164C-3.28987 23.7687 -3.29478 0.650905 9.87698 0ZM9.87733 5.26337C7.34634 5.26337 5.20801 8.4435 5.20801 12.2082C5.20801 15.9726 7.34634 19.1531 9.87733 19.1531C12.4083 19.1531 14.5463 15.9729 14.5463 12.2082C14.5463 8.4435 12.4083 5.26337 9.87733 5.26337Z" transform="translate(80.31549 36.276276)" id="Shape#2" fill="#FFFFFF" fill-rule="evenodd" stroke="none" />
      <path d="M147.844 15.1021C198.139 59.7758 153.424 140.64 88.8331 121.387C88.8329 121.411 88.833 121.456 88.8331 121.512L88.8331 121.525L88.8331 121.576L88.8331 121.586L88.8331 121.588C88.8333 121.771 88.8335 122.007 88.8307 122.071C88.8352 124.158 88.8344 128.488 88.8336 132.417L88.8336 132.428L88.8335 132.91C88.8329 135.529 88.8324 137.916 88.8335 139.263C89.5935 138.879 90.4556 138.51 91.4364 138.159C100.949 134.764 113.237 134.763 122.752 138.159C129.253 140.48 130.618 143.656 130.618 145.912L130.618 169.7C130.618 171.956 129.253 175.131 122.752 177.453C113.24 180.848 100.952 180.849 91.4364 177.453C89.0717 176.608 87.3888 175.651 86.2018 174.666C85.0147 175.651 83.3318 176.608 80.9672 177.453C71.4548 180.848 59.167 180.849 49.6512 177.453C47.2865 176.608 45.6036 175.651 44.4165 174.666C43.2295 175.651 41.5466 176.608 39.182 177.453C29.6696 180.848 17.3818 180.849 7.86629 177.453C1.36497 175.132 0 171.956 0 169.7L0 122.123C0 119.695 1.56322 116.313 9.01019 113.992C12.3696 113.07 13.8676 117.865 10.5762 119.017C6.18692 120.385 5.26337 121.885 5.26337 122.123C5.26337 122.326 6.02341 123.629 9.63583 124.919C18.0099 127.908 29.0345 127.91 37.4124 124.919C41.0248 123.629 41.7849 122.326 41.7849 122.123C41.7849 121.92 41.0262 120.62 37.4215 119.331C33.7589 118.022 28.8342 117.3 23.5539 117.297C20.0717 117.175 20.0728 112.152 23.5568 112.033C30.6609 112.13 36.4324 112.941 41.7845 115.474L41.7845 97.9567C41.7845 95.7015 43.1495 92.5256 49.6508 90.2045C50.3656 89.9494 51.1217 89.7153 51.9084 89.4995C26.3569 36.6518 81.6721 -19.1386 134.619 6.37999C135.925 7.01826 136.466 8.59411 135.828 9.89978C135.189 11.2058 133.612 11.7465 132.308 11.1093C83.2224 -12.4959 32.4343 39.9743 57.2497 88.4163C64.9918 87.3219 73.5493 87.5566 80.9668 90.2045C87.4681 92.5253 88.8331 95.7012 88.8331 97.9567L88.8331 115.84C148.27 135.415 191.098 60.6811 144.409 19.0903C143.308 18.1419 143.184 16.4804 144.133 15.3789C145.081 14.2771 146.742 14.1536 147.844 15.1021ZM51.4203 95.1615C59.7954 92.1719 70.8247 92.1726 79.1973 95.1615C82.8097 96.451 83.5697 97.7539 83.5697 97.9567C83.5697 98.1595 82.8097 99.4628 79.1973 100.752C70.8187 103.743 59.7951 103.742 51.4203 100.752C47.8079 99.4628 47.0479 98.1599 47.0479 97.9567C47.0479 97.7536 47.8079 96.4511 51.4203 95.1615ZM79.1973 112.646C82.8097 111.357 83.5697 110.054 83.5697 109.851L83.5697 104.606C82.8097 104.99 81.9476 105.359 80.9668 105.71C71.4545 109.105 59.1666 109.106 49.6508 105.71C48.6701 105.359 47.8079 104.989 47.0479 104.606L47.0479 109.851C47.0479 110.054 47.8079 111.357 51.4203 112.646C59.7944 115.636 70.8194 115.637 79.1973 112.646ZM49.6508 117.603C60.0695 121.233 73.497 121.131 83.5697 116.501L83.5697 121.935C83.5697 122.138 82.8097 123.441 79.1973 124.73C70.8187 127.721 59.7951 127.719 51.4203 124.73C47.8079 123.441 47.0479 122.138 47.0479 121.935L47.0479 116.501C47.8079 116.883 48.6697 117.253 49.6508 117.603ZM79.1973 136.813C82.8097 135.523 83.5697 134.221 83.5697 134.017L83.5697 128.584C82.8097 128.967 81.9476 129.337 80.9668 129.687C71.4545 133.082 59.1666 133.083 49.6508 129.687C48.6701 129.337 47.8079 128.966 47.0479 128.584L47.0479 134.017C47.0479 134.22 47.8079 135.523 51.4203 136.813C59.7951 139.802 70.8187 139.804 79.1973 136.813ZM41.7845 128.773C31.7118 133.403 18.2846 133.505 7.86594 129.876C6.88485 129.525 6.02271 129.156 5.26303 128.773L5.26303 134.018C5.26303 134.221 6.02306 135.524 9.63549 136.813C18.0102 139.803 29.0335 139.804 37.4121 136.813C41.0245 135.524 41.7845 134.221 41.7845 134.018L41.7845 128.773ZM37.4121 148.707C41.0245 147.418 41.7845 146.115 41.7845 145.912L41.7845 140.667C41.0245 141.05 40.1623 141.42 39.1816 141.77C29.6693 145.166 17.3814 145.167 7.86594 141.77C6.8852 141.42 6.02306 141.05 5.26303 140.667L5.26303 145.912C5.26303 146.115 6.02306 147.418 9.63549 148.707C18.0102 151.697 29.0335 151.698 37.4121 148.707ZM79.1973 148.707C70.8187 151.698 59.7951 151.696 51.4203 148.707C47.8079 147.418 47.0479 146.115 47.0479 145.912L47.0479 140.667C47.8079 141.05 48.6701 141.42 49.6508 141.77C59.1666 145.167 71.4545 145.166 80.9668 141.77C81.9476 141.42 82.8097 141.05 83.5697 140.667L83.5697 145.912C83.5697 146.115 82.8097 147.418 79.1973 148.707ZM120.982 143.116C112.607 140.127 101.584 140.125 93.2056 143.116C89.5931 144.406 88.8331 145.708 88.8331 145.912C88.8331 146.115 89.5931 147.418 93.2056 148.707C101.58 151.697 112.604 151.698 120.982 148.707C124.595 147.418 125.355 146.114 125.355 145.912C125.355 145.709 124.595 144.406 120.982 143.116ZM5.26303 152.561C6.02306 152.944 6.8852 153.314 7.86594 153.664C17.3814 157.061 29.6693 157.06 39.1816 153.664C40.1623 153.314 41.0245 152.944 41.7845 152.561L41.7845 157.806C41.7845 158.009 41.0245 159.312 37.4121 160.601C29.0342 163.592 18.0095 163.591 9.63549 160.601C6.02306 159.311 5.26303 158.009 5.26303 157.806L5.26303 152.561ZM49.6508 153.664C48.6701 153.314 47.8079 152.944 47.0479 152.561L47.0479 157.806C47.0479 158.009 47.8079 159.311 51.4203 160.601C59.7944 163.591 70.8194 163.592 79.1973 160.601C82.8097 159.312 83.5697 158.009 83.5697 157.806L83.5697 152.561C82.8097 152.944 81.9476 153.314 80.9668 153.664C71.4545 157.06 59.1666 157.061 49.6508 153.664ZM125.355 157.806C125.355 158.009 124.595 159.312 120.982 160.601C112.604 163.592 101.58 163.591 93.2056 160.601C89.5931 159.312 88.8331 158.009 88.8331 157.806L88.8331 152.561C89.5931 152.944 90.4553 153.314 91.436 153.665C100.952 157.061 113.239 157.06 122.752 153.665C123.732 153.314 124.595 152.945 125.355 152.561L125.355 157.806ZM37.4121 172.496C29.0335 175.487 18.0102 175.485 9.63549 172.496C6.02306 171.206 5.26303 169.904 5.26303 169.701L5.26303 164.456C16.1986 169.375 30.8518 169.374 41.7845 164.456L41.7845 169.701C41.7845 169.904 41.0245 171.206 37.4121 172.496ZM51.4203 172.496C59.7951 175.485 70.8187 175.487 79.1973 172.496C82.8097 171.206 83.5697 169.904 83.5697 169.701L83.5697 164.456C72.637 169.374 57.9834 169.375 47.0479 164.456L47.0479 169.701C47.0479 169.904 47.8079 171.206 51.4203 172.496ZM120.982 172.496C112.604 175.487 101.58 175.485 93.2056 172.496C89.5931 171.206 88.8331 169.904 88.8331 169.701L88.8331 164.456C99.7686 169.375 114.422 169.374 125.355 164.456L125.355 169.701C125.355 169.904 124.595 171.206 120.982 172.496Z" id="Shape#3" fill="#FFFFFF" fill-rule="evenodd" stroke="none" />
    </g>
  </g>
</svg>