<?xml version="1.0" standalone="no"?>
<!DOCTYPE svg PUBLIC "-//W3C//DTD SVG 20010904//EN"
 "http://www.w3.org/TR/2001/REC-SVG-20010904/DTD/svg10.dtd">
<svg version="1.0" xmlns="http://www.w3.org/2000/svg"
 width="360.000000pt" height="360.000000pt" viewBox="0 0 360.000000 360.000000"
 preserveAspectRatio="xMidYMid meet">
<metadata>
Created by potrace 1.14, written by Peter Selinger 2001-2017
</metadata>
<g transform="translate(0.000000,360.000000) scale(0.100000,-0.100000)"
fill="#000000" stroke="none">
<path d="M1180 3222 c0 -4 17 -16 38 -27 20 -11 43 -26 50 -32 7 -7 18 -13 24
-13 6 0 8 -3 5 -6 -4 -4 2 -14 12 -24 12 -9 16 -21 12 -28 -5 -9 -13 -7 -31 8
-12 11 -27 17 -31 14 -5 -3 -9 0 -9 5 0 6 -8 11 -18 11 -10 0 -22 3 -26 7 -10
11 -37 12 -30 2 3 -5 1 -9 -5 -9 -5 0 -18 -3 -28 -6 -15 -5 -16 -4 -3 5 12 9
8 10 -15 5 -16 -4 -40 -8 -52 -9 -12 0 -25 -4 -28 -7 -4 -4 -18 -4 -31 -2 -13
2 -24 0 -24 -6 0 -5 -11 -10 -24 -10 -14 0 -27 -4 -31 -9 -3 -5 -19 -12 -35
-16 -56 -12 -22 -22 70 -19 49 1 88 -1 86 -4 -2 -4 8 -8 22 -9 15 0 28 -6 30
-12 2 -6 9 -11 17 -11 7 0 19 -8 26 -17 12 -15 12 -16 -3 -10 -10 4 -26 10
-35 14 -16 6 -16 5 -4 -11 13 -16 12 -17 -15 -10 -16 4 -33 7 -39 6 -5 -1 -23
-4 -40 -6 -16 -2 -31 -5 -32 -6 -2 -1 -9 -3 -15 -4 -7 -1 -12 -9 -12 -19 1
-10 -5 -17 -16 -17 -10 0 -23 -7 -30 -15 -7 -8 -18 -15 -26 -15 -7 0 -17 -6
-21 -13 -4 -8 -17 -19 -28 -25 -14 -8 -16 -11 -5 -12 8 0 0 -9 -17 -20 -34
-21 -44 -34 -18 -24 26 10 16 -3 -17 -25 -26 -16 -29 -21 -14 -21 19 0 18 -1
-2 -23 -26 -27 -28 -37 -7 -37 8 0 19 9 25 20 6 11 17 20 26 20 8 0 17 7 21
16 3 8 12 13 19 10 8 -3 14 -1 14 3 0 8 36 25 75 37 6 1 24 7 42 12 23 8 33 7
36 -1 2 -7 20 -11 43 -10 l39 2 -30 -14 c-16 -8 -36 -14 -43 -15 -7 0 -11 -4
-7 -9 3 -5 -4 -13 -16 -16 -11 -4 -18 -10 -14 -13 3 -3 -4 -11 -16 -18 -13 -6
-24 -19 -25 -28 -2 -13 2 -14 18 -5 34 18 31 3 -4 -20 -28 -19 -29 -21 -8 -15
l25 7 -20 -23 c-14 -16 -16 -24 -8 -27 9 -3 8 -11 -4 -29 -14 -22 -14 -24 1
-18 13 5 15 2 10 -12 -4 -11 -12 -25 -18 -33 -9 -12 -8 -13 7 -8 15 5 16 2 12
-24 -4 -20 -2 -28 5 -24 6 4 10 -4 10 -19 0 -17 6 -26 16 -26 9 0 12 -5 8 -12
-4 -8 -3 -10 2 -5 5 5 9 18 10 30 3 69 5 77 18 77 9 0 12 8 8 26 -3 19 -1 25
7 20 6 -4 11 -2 11 4 0 6 7 18 15 27 8 8 13 18 11 22 -3 4 4 12 14 19 12 7 21
8 25 2 4 -6 11 -8 16 -4 5 3 7 9 4 14 -3 5 4 14 15 20 11 6 20 19 20 30 0 10
5 22 12 26 7 4 8 3 4 -4 -4 -7 -3 -12 3 -12 5 0 13 9 16 20 3 11 10 20 15 20
5 0 7 -8 4 -17 -4 -10 3 -4 15 12 11 17 21 24 21 16 0 -9 8 -6 23 10 42 44 91
79 110 79 18 0 17 -2 -6 -26 -113 -112 -217 -320 -234 -464 -8 -64 -8 -147 0
-206 5 -36 49 -176 71 -225 6 -15 -1 -17 -56 -17 -78 0 -176 -10 -217 -22 -17
-5 -31 -7 -31 -5 0 7 -174 -56 -185 -66 -5 -6 10 -6 40 -2 64 10 300 10 385 1
82 -10 340 -70 340 -80 0 -5 -6 -8 -14 -8 -11 0 -44 -11 -126 -44 -8 -4 -28
-15 -45 -26 -16 -11 -37 -23 -45 -27 -23 -10 -123 -93 -113 -93 4 -1 -2 -6
-14 -13 -12 -7 -23 -16 -24 -22 -2 -5 -14 -22 -27 -37 -13 -15 -30 -37 -37
-50 -55 -101 -64 -118 -58 -118 3 0 0 -6 -6 -13 -6 -8 -8 -17 -4 -20 3 -4 2
-7 -4 -7 -12 0 -23 -60 -27 -144 -3 -75 23 -120 72 -123 18 -1 32 3 32 8 0 6
5 7 10 4 6 -3 10 -1 10 4 0 6 7 11 16 11 8 0 13 4 9 9 -3 5 2 17 11 25 8 9 13
16 11 16 -4 0 1 33 17 109 3 12 10 29 16 35 5 7 8 15 5 18 -8 8 50 132 84 182
17 24 27 46 24 50 -4 3 -2 6 4 6 6 0 33 21 59 46 27 26 76 64 109 85 33 21 65
43 71 48 7 5 14 7 18 4 3 -3 11 -1 18 4 41 33 153 52 223 38 11 -2 47 -4 79
-4 66 -1 69 -14 3 -17 -105 -4 -202 -33 -302 -89 -72 -40 -172 -136 -201 -192
-10 -21 -21 -40 -24 -43 -21 -19 -48 -190 -30 -190 6 0 10 5 10 11 0 18 49 71
109 118 141 109 296 153 452 129 100 -16 209 -116 227 -208 9 -46 9 -170 0
-170 -5 0 -7 -4 -3 -10 7 -11 -64 -170 -76 -170 -5 0 -9 -6 -9 -14 0 -7 -33
-47 -74 -87 -82 -83 -87 -87 -153 -130 -27 -17 -59 -39 -73 -48 -14 -9 -54
-29 -90 -45 -36 -15 -74 -31 -85 -36 -30 -14 -175 -49 -212 -52 -46 -3 -41
-14 10 -24 56 -10 61 -11 67 -14 45 -18 263 -28 345 -16 123 18 183 36 289 88
154 76 291 189 364 300 23 34 45 68 50 73 4 6 9 14 9 18 1 4 9 27 19 50 10 23
18 50 20 60 1 9 2 18 3 20 19 22 17 177 -2 252 -3 11 -7 27 -9 35 -1 8 -20 48
-41 89 -56 110 -171 212 -287 254 -64 23 -150 42 -187 42 -18 0 -33 3 -33 7 0
4 21 8 48 9 134 3 257 31 369 85 80 38 90 52 24 34 -114 -30 -424 -33 -555 -5
-12 2 -35 6 -52 9 -38 5 -68 33 -72 66 -1 13 -8 28 -15 32 -9 6 -9 8 0 8 6 0
10 8 8 19 -5 25 18 88 39 109 17 16 17 15 10 -23 -3 -22 -11 -46 -17 -52 -17
-22 15 -15 39 8 27 25 43 18 39 -16 -4 -37 11 -30 28 13 10 25 12 43 6 55 -15
27 14 21 45 -9 24 -25 26 -25 26 -7 0 25 -37 73 -56 73 -8 0 -14 5 -14 11 0 7
10 9 25 7 28 -6 34 9 8 19 -9 3 -31 6 -50 6 -26 0 -33 4 -30 16 2 9 -3 28 -10
44 -12 24 -12 27 2 27 22 0 54 -18 83 -47 32 -32 36 -25 16 28 -19 47 -45 76
-82 90 -35 14 -17 27 29 22 58 -7 43 13 -25 32 -39 11 -60 13 -80 6 -14 -6
-26 -7 -25 -3 2 23 27 77 35 75 5 -2 9 8 8 22 -1 13 4 23 10 22 6 -1 10 8 10
21 -1 17 3 22 13 17 11 -4 13 -1 9 11 -4 9 -1 22 5 30 7 9 7 18 -1 33 -12 23
-2 28 20 9 8 -7 3 1 -13 18 -31 34 -37 56 -8 30 15 -13 20 -14 23 -4 5 13 -18
57 -37 70 -6 5 -6 8 0 8 6 0 -3 12 -20 26 -17 15 -22 24 -12 20 11 -3 20 0 23
9 8 19 24 19 24 0 0 -8 7 -15 16 -15 8 0 13 4 9 9 -3 5 -1 12 5 16 5 3 10 -1
10 -10 0 -11 5 -15 15 -11 9 3 18 -1 21 -9 4 -8 10 -12 15 -9 5 3 12 -2 15
-10 3 -9 10 -13 16 -10 5 3 24 -10 43 -30 18 -20 38 -36 43 -36 10 0 26 -30
23 -43 -1 -4 8 -3 18 3 20 10 20 11 1 55 -11 25 -17 45 -14 45 2 0 -3 11 -12
25 -9 14 -12 25 -8 25 5 0 1 7 -10 15 -10 7 -15 18 -12 23 3 6 -1 12 -9 16 -8
3 -15 12 -15 20 0 7 -12 17 -27 21 l-28 8 25 7 c29 8 43 -2 69 -50 13 -25 42
-48 100 -82 215 -123 345 -284 398 -489 3 -13 7 -71 9 -129 2 -89 -1 -117 -21
-180 -13 -41 -22 -76 -20 -78 4 -4 26 36 60 108 20 41 25 58 42 125 21 88 11
241 -23 341 -70 207 -275 393 -537 488 -37 13 -67 22 -67 20 0 -3 -9 0 -20 6
-22 12 -29 -3 -7 -17 6 -4 18 -16 26 -26 13 -16 11 -17 -18 -15 -18 1 -37 8
-42 14 -6 7 -19 11 -30 9 -12 -2 -17 0 -13 7 4 7 -9 9 -40 7 -46 -4 -62 5 -28
15 9 3 5 4 -10 2 -23 -2 -25 0 -19 17 4 11 16 21 27 23 46 5 84 5 152 1 80 -6
85 3 17 29 -25 9 -45 21 -45 26 0 5 -10 8 -22 7 -13 -1 -31 1 -40 6 -10 4 -32
8 -50 9 -18 0 -39 7 -47 14 -9 8 -24 11 -40 8 -14 -4 -39 -9 -56 -12 -16 -3
-35 -12 -41 -20 -7 -8 -16 -14 -20 -13 -21 4 -34 -2 -34 -15 0 -9 -7 -12 -20
-9 -17 4 -18 8 -8 27 10 19 10 20 -5 7 -15 -12 -17 -10 -17 18 0 17 -5 31 -10
31 -6 0 -15 11 -20 25 -5 14 -15 25 -22 25 -7 0 -42 14 -78 30 -35 15 -68 26
-73 23 -4 -2 -15 1 -23 8 -8 6 -17 9 -20 6 -3 -3 -19 -1 -35 3 -16 5 -29 5
-29 2z m265 -419 c-2 -10 -6 -26 -10 -35 -4 -11 -3 -18 5 -18 6 0 9 -4 6 -9
-4 -5 -2 -21 4 -35 7 -19 6 -29 -4 -38 -7 -7 -11 -20 -8 -30 2 -10 -1 -18 -7
-18 -7 0 -9 -4 -6 -10 11 -18 14 -49 5 -55 -4 -3 -6 -14 -3 -26 4 -14 -1 -25
-16 -35 -12 -9 -19 -19 -16 -24 3 -4 -2 -11 -11 -14 -9 -4 -14 -9 -11 -13 4
-3 -5 -14 -18 -25 -14 -11 -25 -26 -25 -34 0 -12 6 -11 29 5 16 12 36 21 45
21 9 0 16 5 16 10 0 6 5 10 10 10 17 0 113 80 125 103 7 12 18 21 25 19 11 -3
11 0 0 13 -7 8 -10 18 -6 22 3 3 6 1 6 -5 0 -17 30 -15 36 3 4 8 12 15 20 15
17 0 18 -16 2 -24 -7 -3 -2 -3 12 1 22 5 23 4 11 -11 -9 -10 -10 -16 -2 -16 6
0 11 -9 11 -21 0 -11 4 -18 9 -15 11 7 9 -13 -3 -33 -5 -8 -4 -16 4 -21 9 -6
9 -12 0 -30 -8 -15 -8 -20 -1 -16 13 8 14 -13 2 -32 -6 -10 -10 -10 -21 3 -14
16 -73 45 -94 45 -6 0 3 -12 19 -26 l30 -25 -30 7 c-38 10 -115 7 -146 -5
l-24 -10 28 0 c37 -1 40 -2 60 -12 26 -14 12 -28 -25 -25 -33 3 -48 -6 -104
-63 -38 -38 -38 -52 0 -28 14 9 44 19 68 23 l43 5 -28 -25 c-29 -27 -43 -97
-28 -139 8 -20 9 -20 15 10 6 28 80 103 101 103 4 0 18 9 32 20 42 33 38 16
-11 -47 -25 -32 -46 -65 -46 -74 0 -8 -5 -20 -12 -27 -6 -6 -13 -44 -14 -84
-2 -40 -4 -75 -4 -78 0 -6 -58 59 -77 87 -12 19 -22 21 -78 19 -73 -3 -77 6
-10 23 25 6 45 15 45 21 0 5 -9 24 -19 42 -11 18 -25 52 -32 75 -12 42 -12 42
-63 45 l-51 3 48 14 c40 11 47 17 41 33 -13 44 -3 203 17 255 15 40 11 56 -11
50 -11 -3 -22 -1 -25 3 -3 5 8 11 24 15 23 5 35 18 61 73 43 87 70 132 80 132
5 0 7 -8 5 -17z m197 -607 c-2 -11 -12 -27 -20 -33 -10 -8 -11 -13 -4 -13 21
0 13 -18 -20 -49 -18 -17 -33 -29 -34 -28 -5 4 19 102 25 107 4 3 15 18 25 34
20 32 38 21 28 -18z m-17 -140 c-20 -30 -25 -59 -14 -77 7 -11 9 -11 9 3 0 17
73 78 92 78 5 0 -2 -15 -15 -32 -33 -44 -50 -100 -44 -148 2 -22 1 -40 -4 -40
-5 0 -21 18 -35 40 -16 24 -33 39 -41 36 -7 -3 -13 -1 -13 4 0 6 5 10 11 10 6
0 8 9 3 23 -4 12 -7 28 -7 36 0 8 -8 16 -17 18 -14 4 -13 9 11 37 16 17 40 33
54 34 24 2 25 1 10 -22z"/>
<path d="M925 2960 c-3 -5 -1 -10 4 -10 6 0 11 5 11 10 0 6 -2 10 -4 10 -3 0
-8 -4 -11 -10z"/>
<path d="M1090 2619 c0 -5 5 -7 10 -4 6 3 10 8 10 11 0 2 -4 4 -10 4 -5 0 -10
-5 -10 -11z"/>
<path d="M2422 1548 c41 -42 68 -76 68 -85 0 -3 13 -27 28 -52 25 -41 35 -65
49 -121 25 -103 17 -344 -14 -393 -4 -6 -8 -16 -9 -22 -1 -5 -9 -28 -18 -50
-10 -22 -17 -42 -18 -45 0 -3 -9 -17 -19 -32 -10 -14 -19 -31 -19 -37 0 -6 -4
-11 -8 -11 -4 0 -15 -12 -24 -27 -19 -33 -121 -141 -162 -171 -33 -25 -19 -29
24 -7 17 9 30 13 30 10 0 -6 135 62 155 77 12 10 51 43 85 72 50 41 154 196
133 196 -5 0 -3 4 3 8 32 21 51 211 30 297 -18 70 -60 167 -88 200 -10 11 -16
22 -15 25 3 8 -115 120 -165 157 -62 46 -84 51 -46 11z"/>
</g>
</svg>
