<?xml version="1.0" standalone="no"?>
<!DOCTYPE svg PUBLIC "-//W3C//DTD SVG 20010904//EN"
 "http://www.w3.org/TR/2001/REC-SVG-20010904/DTD/svg10.dtd">
<svg version="1.0" xmlns="http://www.w3.org/2000/svg"
 width="1000.000000pt" height="1000.000000pt" viewBox="0 0 1000.000000 1000.000000"
 preserveAspectRatio="xMidYMid meet">
<metadata>
Created by potrace 1.14, written by Peter Selinger 2001-2017
</metadata>
<g transform="translate(0.000000,1000.000000) scale(0.100000,-0.100000)"
fill="#000000" stroke="none">
<path d="M4767 8094 c-5 -5 -61 -15 -117 -20 -76 -7 -115 -12 -115 -14 0 -4
-101 -21 -132 -23 -13 0 -23 -4 -23 -8 0 -5 -9 -6 -20 -4 -11 2 -20 0 -20 -5
0 -5 -9 -7 -20 -5 -11 2 -20 0 -20 -6 0 -5 -3 -8 -7 -8 -5 1 -10 1 -13 -1 -5
-1 -38 -8 -67 -14 -7 -1 -15 -5 -19 -8 -3 -4 -11 -5 -18 -2 -7 3 -25 -2 -41
-10 -16 -8 -32 -13 -37 -10 -4 3 -8 1 -8 -5 0 -9 -52 -24 -77 -23 -5 0 -15 -6
-24 -14 -9 -8 -19 -11 -22 -7 -4 3 -7 0 -7 -7 0 -7 -3 -10 -7 -7 -3 4 -12 2
-19 -3 -6 -6 -23 -13 -35 -15 -13 -3 -25 -9 -27 -15 -2 -5 -12 -10 -22 -10
-10 0 -22 -5 -25 -10 -4 -6 -11 -8 -16 -4 -6 3 -18 0 -27 -8 -9 -8 -36 -24
-59 -35 -23 -11 -39 -24 -35 -28 4 -4 0 -6 -8 -3 -8 3 -27 -4 -42 -14 -16 -11
-28 -16 -28 -13 0 4 -12 -3 -26 -14 -15 -11 -31 -18 -37 -14 -6 4 -7 1 -2 -7
6 -10 4 -12 -9 -7 -9 4 -15 3 -12 -2 5 -8 -42 -36 -56 -33 -5 1 -8 -3 -8 -8 0
-6 -6 -10 -14 -10 -8 0 -16 -7 -20 -15 -3 -8 -10 -14 -15 -13 -5 2 -29 -13
-53 -33 -24 -20 -58 -43 -75 -52 -17 -9 -39 -27 -47 -39 -9 -12 -16 -19 -16
-15 0 5 -6 2 -14 -5 -39 -38 -77 -68 -86 -68 -5 0 -10 -7 -10 -15 0 -8 -8 -15
-17 -15 -10 0 -29 -16 -43 -34 -14 -19 -26 -33 -28 -31 -2 2 -29 -25 -59 -58
-70 -78 -68 -75 -59 -57 4 8 -3 2 -15 -14 -13 -17 -43 -50 -66 -74 -24 -24
-43 -47 -43 -51 0 -3 -9 -13 -19 -21 -11 -7 -18 -17 -15 -21 2 -4 -4 -14 -14
-21 -10 -7 -27 -26 -38 -43 -22 -35 -42 -60 -66 -87 -10 -10 -18 -23 -18 -28
0 -12 -15 -32 -42 -57 -9 -9 -15 -20 -12 -25 3 -4 0 -8 -5 -8 -6 0 -11 -7 -11
-15 0 -8 -5 -15 -11 -15 -5 0 -7 -4 -4 -10 3 -5 2 -10 -3 -10 -6 0 -15 -12
-21 -27 -16 -38 -44 -87 -53 -91 -5 -2 -8 -13 -8 -23 0 -13 -4 -18 -12 -13 -8
5 -9 2 -5 -9 3 -10 2 -17 -3 -17 -5 0 -12 -10 -16 -22 -3 -13 -16 -36 -27 -52
-13 -19 -16 -27 -6 -22 9 5 9 3 -2 -6 -9 -7 -14 -19 -12 -25 3 -7 0 -13 -7
-13 -6 0 -8 -4 -5 -10 3 -5 1 -10 -5 -10 -6 0 -9 -4 -5 -9 3 -5 1 -12 -5 -16
-6 -4 -8 -10 -5 -15 3 -5 -1 -14 -8 -22 -7 -7 -14 -17 -14 -21 -2 -23 -13 -54
-29 -86 -7 -14 -11 -28 -8 -33 3 -4 1 -8 -5 -8 -6 0 -7 -7 -4 -17 5 -12 3 -14
-7 -8 -8 5 -11 4 -7 -3 4 -5 -2 -30 -12 -55 -11 -25 -17 -47 -15 -50 3 -3 -1
-21 -10 -40 -8 -19 -12 -38 -8 -41 3 -3 0 -6 -6 -6 -6 0 -9 -8 -8 -17 2 -10
-1 -29 -7 -43 -6 -14 -11 -34 -12 -45 0 -11 -3 -24 -6 -30 -3 -5 -5 -17 -4
-25 1 -8 -3 -26 -8 -40 -13 -37 -24 -106 -30 -197 0 -13 -3 -23 -6 -23 -7 0
-9 -33 -14 -317 -2 -128 -1 -233 3 -233 3 0 5 -27 5 -60 -1 -34 1 -63 5 -65 4
-3 6 -16 5 -30 -2 -14 0 -25 4 -25 4 0 8 -24 9 -52 0 -29 2 -62 4 -73 4 -26
39 -47 55 -33 7 6 13 8 13 4 0 -3 15 3 33 13 17 10 40 17 49 15 9 -1 19 5 22
13 4 8 13 13 21 9 8 -3 15 0 15 6 0 6 3 8 7 5 3 -4 12 -2 19 3 6 6 18 9 25 8
11 -2 14 13 15 62 0 36 -3 70 -6 75 -8 11 -8 9 -15 115 -10 136 -6 505 5 505
2 0 10 72 13 117 1 21 4 38 8 38 3 0 6 10 6 23 1 21 10 62 13 62 1 0 3 14 5
30 2 17 6 42 9 58 3 15 8 39 11 54 3 14 10 34 16 45 5 10 7 18 3 18 -3 0 -1 6
5 13 6 8 8 17 4 20 -3 4 -1 7 4 7 6 0 10 11 8 25 -1 14 2 25 8 25 6 0 7 3 4 7
-4 3 -2 13 5 20 11 13 14 26 20 71 1 6 4 12 8 12 3 0 12 22 20 50 7 27 20 52
27 55 8 2 12 9 8 15 -3 5 8 36 25 70 17 33 30 61 29 62 -1 2 12 26 29 54 16
28 33 60 36 72 4 11 14 23 22 26 8 3 12 10 9 16 -3 5 -1 10 5 10 6 0 9 4 6 9
-3 5 1 14 9 21 8 7 12 16 9 21 -3 5 2 9 11 9 9 0 14 4 10 10 -3 5 3 18 15 30
11 11 20 24 20 28 0 5 9 18 20 30 12 12 18 22 14 22 -4 0 5 11 20 25 15 14 23
25 19 25 -4 0 0 5 10 11 9 5 17 16 17 23 0 6 16 27 35 46 19 18 32 37 29 42
-3 4 2 8 10 8 9 0 15 4 14 8 -2 4 10 20 26 35 16 15 26 27 23 27 -3 0 33 38
81 85 47 47 89 85 94 85 4 0 8 7 8 17 0 9 3 13 7 10 3 -4 17 5 30 19 12 14 23
21 23 17 1 -4 9 2 19 14 10 12 21 19 25 16 3 -4 6 1 6 10 0 9 3 16 8 15 10 -4
53 28 47 34 -3 3 10 13 29 22 20 9 40 24 45 34 6 9 11 13 11 9 0 -5 14 3 31
17 17 14 37 26 45 26 8 0 14 3 14 8 0 11 113 77 125 73 5 -1 7 1 2 5 -7 7 97
63 119 64 6 0 21 9 34 20 13 11 30 20 37 20 8 0 27 8 41 19 25 17 65 31 86 30
5 -1 12 4 16 11 4 6 17 12 28 13 12 1 22 5 22 10 0 4 5 5 10 2 6 -3 10 -1 10
6 0 7 3 9 7 6 3 -4 12 -2 20 5 7 6 16 8 19 5 3 -3 26 3 50 13 24 11 44 17 44
13 0 -3 7 0 15 7 8 6 19 9 25 5 5 -3 10 -1 10 5 0 7 6 10 13 7 6 -2 23 0 37 5
14 6 34 12 45 14 40 10 71 16 95 19 14 2 26 4 28 6 1 1 7 3 12 4 6 1 11 3 13
4 1 1 22 4 47 6 97 10 126 14 150 22 36 13 595 6 595 -7 0 -3 43 -9 95 -14 52
-4 65 -6 135 -23 17 -4 34 -6 39 -5 4 2 13 -1 20 -6 6 -5 21 -9 32 -10 12 0
41 -6 65 -13 24 -7 47 -12 52 -11 4 1 7 -2 7 -7 0 -5 8 -8 18 -6 9 1 22 -1 28
-6 6 -5 19 -10 30 -12 24 -5 54 -16 76 -28 10 -5 23 -9 30 -9 6 0 20 -8 31
-17 11 -10 17 -12 13 -6 -5 9 -2 11 8 7 9 -3 16 -10 16 -16 0 -5 5 -6 10 -3 6
4 22 -1 36 -10 13 -9 28 -13 33 -10 5 2 12 -2 15 -11 3 -8 10 -13 14 -10 5 3
18 -1 28 -9 10 -8 27 -15 37 -15 10 0 15 -4 12 -10 -3 -5 0 -10 9 -10 17 0 78
-31 88 -45 4 -5 8 -6 8 -2 0 5 7 1 16 -7 8 -9 19 -14 24 -11 4 3 11 -2 14 -11
4 -9 9 -14 12 -11 4 3 21 -4 38 -17 17 -13 39 -26 49 -29 9 -4 17 -11 17 -17
0 -5 4 -10 10 -10 13 0 100 -60 123 -84 9 -10 17 -15 17 -11 0 5 7 0 15 -11 8
-10 15 -15 15 -11 0 4 16 -8 35 -28 20 -19 38 -35 41 -35 3 0 23 -18 44 -40
20 -21 40 -36 44 -33 3 4 6 -1 6 -10 0 -9 5 -19 12 -23 7 -5 8 -3 3 6 -5 9 -4
11 3 6 7 -4 12 -14 12 -23 0 -9 3 -14 6 -11 7 7 44 -28 44 -41 0 -5 9 -13 20
-16 11 -3 20 -11 20 -16 0 -15 26 -39 34 -32 3 4 6 -1 6 -9 0 -9 3 -18 8 -20
4 -1 19 -18 34 -36 15 -18 31 -34 35 -35 4 -1 7 -5 6 -8 -1 -4 7 -15 17 -24
11 -10 20 -24 20 -32 0 -8 3 -12 8 -9 4 2 29 -27 56 -66 26 -39 42 -67 34 -63
-7 4 -1 -4 15 -17 15 -14 27 -28 27 -32 0 -4 11 -22 25 -40 14 -18 22 -36 18
-39 -3 -4 -1 -7 5 -7 7 0 12 -7 12 -15 0 -8 5 -15 11 -15 5 0 7 -4 4 -10 -3
-5 -3 -10 2 -10 4 0 16 -14 25 -31 10 -16 14 -27 9 -24 -5 3 0 -12 12 -34 12
-22 25 -37 29 -35 5 3 8 -2 8 -10 0 -27 1 -31 14 -46 17 -19 36 -77 29 -84 -3
-3 2 -8 11 -12 9 -3 13 -10 10 -15 -3 -5 0 -9 6 -9 6 0 9 -4 6 -8 -4 -7 12
-51 36 -96 7 -14 7 -16 -4 -10 -10 6 -10 5 -2 -7 17 -22 33 -75 25 -87 -7 -12
-61 -36 -73 -34 -5 1 -8 -2 -8 -7 0 -8 -44 -23 -67 -22 -5 0 -11 -7 -16 -14
-4 -8 -14 -12 -21 -9 -7 3 -21 -2 -30 -11 -9 -9 -16 -14 -16 -11 0 4 -19 -3
-42 -15 -24 -12 -44 -21 -46 -20 -1 1 -16 -6 -32 -14 -17 -9 -35 -13 -40 -10
-6 4 -13 0 -16 -8 -2 -7 -10 -14 -17 -15 -49 -7 -62 -11 -60 -19 1 -5 -6 -9
-15 -10 -31 -2 -46 -8 -60 -21 -8 -7 -18 -10 -23 -7 -5 4 -9 1 -9 -5 0 -6 -4
-9 -9 -5 -5 3 -12 1 -16 -5 -4 -6 -11 -8 -16 -5 -5 4 -9 1 -9 -4 0 -6 -3 -10
-7 -9 -7 1 -33 -8 -83 -29 -8 -3 -21 -5 -27 -4 -7 1 -13 -2 -13 -7 0 -9 -37
-25 -52 -23 -5 1 -8 -3 -8 -9 0 -5 -10 -10 -22 -10 -13 0 -41 -9 -63 -19 -22
-10 -42 -18 -45 -18 -3 1 -18 -7 -33 -17 -15 -11 -30 -16 -34 -13 -3 3 -12 -1
-20 -9 -8 -8 -19 -12 -24 -9 -5 4 -9 1 -9 -4 0 -6 -3 -10 -7 -10 -5 1 -22 -4
-40 -10 -18 -7 -35 -12 -38 -12 -3 0 -21 -8 -41 -19 -20 -12 -32 -15 -28 -8 4
7 -1 6 -12 -3 -16 -14 -48 -30 -64 -33 -3 -1 -11 -5 -17 -9 -7 -5 -13 -5 -13
0 0 4 -4 2 -8 -4 -4 -7 -17 -14 -27 -16 -11 -2 -36 -10 -55 -19 -19 -8 -55
-23 -80 -33 -25 -10 -64 -27 -87 -37 -23 -11 -48 -16 -54 -12 -7 4 -9 3 -6 -3
6 -9 -68 -39 -85 -35 -5 1 -8 -3 -8 -9 0 -5 -4 -7 -10 -4 -5 3 -10 2 -10 -4 0
-6 -15 -14 -32 -20 -62 -19 -106 -37 -122 -50 -9 -7 -16 -10 -16 -6 0 4 -7 2
-15 -5 -8 -7 -15 -10 -15 -7 0 5 -46 -12 -130 -50 -19 -9 -41 -16 -47 -16 -7
0 -13 -4 -13 -9 0 -4 -7 -8 -15 -8 -9 0 -27 -7 -41 -16 -13 -9 -27 -14 -31
-11 -3 4 -12 -1 -20 -11 -9 -10 -12 -11 -7 -2 6 12 4 12 -12 -1 -10 -9 -25
-14 -31 -12 -7 3 -13 0 -13 -6 0 -5 -16 -13 -35 -17 -19 -3 -35 -10 -35 -16 0
-5 -4 -6 -10 -3 -5 3 -10 2 -10 -4 0 -6 -7 -8 -15 -5 -8 4 -15 1 -15 -6 0 -7
-6 -10 -14 -7 -8 3 -16 3 -18 -1 -4 -9 -117 -55 -134 -55 -7 0 -16 -7 -18 -14
-3 -8 -11 -11 -17 -8 -5 4 -20 -1 -31 -12 -14 -12 -19 -13 -13 -3 5 9 0 8 -13
-4 -12 -11 -22 -15 -22 -11 0 4 -8 1 -17 -7 -10 -9 -26 -14 -35 -13 -10 2 -18
-1 -18 -6 0 -6 -4 -7 -10 -4 -5 3 -10 1 -10 -4 0 -6 -9 -11 -20 -11 -11 0 -20
-5 -20 -11 0 -5 -5 -7 -11 -3 -6 3 -14 2 -18 -4 -4 -7 -16 -13 -26 -15 -11 -2
-37 -11 -59 -20 -21 -9 -42 -17 -47 -17 -5 0 -9 -4 -9 -8 0 -5 -6 -9 -12 -9
-23 -1 -43 -8 -50 -17 -3 -5 -12 -11 -20 -12 -7 -1 -30 -9 -50 -18 -21 -9 -38
-14 -38 -10 0 3 -14 -5 -32 -17 -17 -13 -28 -17 -24 -10 6 8 0 7 -16 -3 -14
-9 -28 -13 -31 -9 -4 3 -7 1 -7 -5 0 -7 -9 -12 -19 -12 -11 0 -26 -6 -33 -12
-17 -16 -52 -23 -43 -9 3 6 3 11 -2 11 -6 0 -10 247 -4 296 0 7 13 19 27 29
18 11 24 13 19 4 -5 -8 1 -5 13 5 12 11 22 15 22 10 0 -5 6 -2 13 6 7 8 22 16
35 18 12 2 34 10 49 17 15 8 30 12 35 9 4 -3 8 0 8 6 0 7 7 9 16 6 8 -3 12 -2
9 4 -5 9 15 15 38 11 4 0 7 4 7 11 0 6 3 9 6 5 4 -3 23 2 44 13 21 11 40 16
44 13 3 -4 6 -1 6 5 0 7 8 12 18 12 10 0 27 7 39 15 12 9 26 15 30 14 16 -2
53 14 53 23 0 5 4 7 10 3 5 -3 26 4 47 15 21 11 43 20 48 20 6 0 36 12 66 26
30 15 64 28 76 28 12 1 26 6 30 10 5 5 2 6 -6 1 -10 -6 -12 -4 -7 4 5 7 14 10
22 7 8 -3 14 -1 14 5 0 6 7 9 15 5 8 -3 15 -1 15 4 0 5 18 13 40 16 22 4 37
10 34 15 -3 5 -2 9 3 10 27 2 55 11 106 33 31 14 57 22 57 18 0 -4 4 -2 8 3 4
6 21 16 37 23 17 8 43 20 58 28 15 7 25 9 22 4 -4 -6 14 1 40 15 25 14 50 23
55 20 6 -3 10 -1 10 4 0 6 3 10 8 9 4 -1 17 3 30 10 12 7 22 10 22 7 0 -3 21
6 46 20 25 14 43 21 39 15 -3 -6 0 -7 9 -4 9 3 13 11 9 17 -3 6 -1 7 6 3 6 -4
17 -3 24 2 7 6 21 12 32 14 11 1 26 9 33 16 8 7 18 10 23 7 5 -4 9 -1 9 5 0 7
6 10 14 7 8 -3 20 1 26 8 7 8 16 13 20 10 5 -3 11 -1 15 5 4 6 11 8 16 5 5 -4
9 -1 9 6 0 7 3 9 7 6 3 -4 12 -2 20 4 7 6 13 8 13 4 0 -5 9 0 21 11 12 10 24
18 28 17 10 -4 71 18 71 26 0 4 8 7 18 8 9 1 40 12 67 24 28 12 56 21 63 20 6
-1 12 3 12 9 0 5 8 10 18 10 9 0 22 8 27 18 10 17 12 901 2 970 -2 17 -1 32 3
32 8 0 7 31 -3 46 -4 7 -231 10 -744 10 l-738 -1 0 -152 c-1 -145 0 -152 20
-155 34 -6 1055 -1 1061 5 3 3 19 1 35 -3 17 -5 29 -5 29 1 0 5 8 4 18 -2 16
-10 17 -32 16 -272 -2 -304 -1 -290 -14 -282 -5 3 -10 2 -10 -3 0 -9 -55 -34
-64 -29 -2 1 -13 -6 -24 -16 -11 -10 -23 -17 -28 -16 -5 1 -17 -1 -26 -4 -10
-4 -26 -10 -35 -14 -10 -3 -21 -5 -25 -5 -5 1 -8 -3 -8 -9 0 -5 -4 -8 -9 -5
-13 8 -42 -4 -35 -15 4 -8 -25 -14 -48 -10 -5 0 -8 -4 -8 -10 0 -5 -4 -7 -10
-4 -5 3 -10 1 -10 -5 0 -6 -5 -8 -10 -5 -6 3 -17 -1 -26 -9 -8 -9 -24 -17 -35
-17 -10 -1 -25 -2 -31 -3 -7 -1 -18 -7 -23 -14 -6 -7 -23 -15 -38 -18 -16 -2
-39 -11 -50 -19 -12 -8 -24 -14 -27 -14 -3 0 -16 -4 -30 -9 -14 -5 -28 -10
-33 -11 -4 0 -21 -8 -37 -16 -17 -9 -30 -13 -30 -10 0 4 -41 -14 -110 -50 -14
-7 -31 -10 -37 -8 -7 3 -13 0 -13 -6 0 -6 -9 -11 -19 -11 -11 0 -23 -5 -26
-10 -4 -6 -11 -8 -16 -5 -5 4 -9 1 -9 -5 0 -6 -4 -9 -8 -6 -5 3 -23 -4 -41
-15 -18 -11 -29 -14 -25 -7 4 7 -2 4 -14 -6 -12 -11 -22 -16 -22 -12 0 4 -15
-1 -32 -10 -69 -36 -70 -36 -63 -22 3 7 -1 4 -9 -6 -9 -11 -16 -17 -16 -13 0
4 -15 1 -34 -7 -19 -8 -37 -12 -40 -8 -3 3 -6 0 -6 -7 0 -7 -4 -9 -10 -6 -5 3
-10 1 -10 -5 0 -7 -7 -9 -16 -6 -8 3 -13 2 -10 -3 3 -5 -1 -12 -10 -15 -10 -4
-13 -2 -8 7 5 7 1 6 -10 -3 -10 -8 -25 -15 -34 -17 -9 -1 -18 -7 -20 -13 -2
-5 -7 -8 -12 -5 -4 2 -22 -2 -39 -11 -18 -9 -37 -17 -44 -18 -7 -1 -22 -7 -33
-14 -12 -6 -24 -8 -28 -5 -3 3 -6 1 -6 -6 0 -7 -4 -9 -10 -6 -5 3 -10 1 -10
-5 0 -6 -4 -9 -9 -5 -5 3 -12 1 -16 -5 -4 -6 -11 -8 -16 -5 -5 4 -9 2 -9 -4 0
-5 -9 -8 -20 -6 -11 2 -20 0 -20 -5 0 -4 -13 -13 -30 -19 -16 -5 -30 -7 -30
-4 0 4 -7 -2 -16 -13 -8 -10 -12 -12 -8 -4 7 12 5 13 -8 2 -12 -10 -17 -10
-25 0 -6 8 -9 312 -9 786 1 424 -1 773 -4 774 -3 0 -69 2 -148 3 -123 2 -144
0 -150 -14 -4 -9 -7 -234 -5 -501 4 -661 4 -683 1 -947 -3 -232 -6 -250 -39
-258 -38 -9 -59 -18 -59 -27 0 -5 -4 -7 -9 -4 -4 3 -24 -3 -44 -13 -20 -10
-34 -14 -31 -9 4 6 -5 3 -19 -6 -13 -9 -35 -19 -47 -21 -12 -2 -28 -9 -34 -14
-7 -6 -21 -12 -32 -14 -10 -2 -37 -12 -59 -22 -22 -10 -44 -19 -50 -20 -5 0
-16 -4 -22 -8 -7 -5 -13 -5 -13 0 0 4 -4 2 -9 -5 -4 -7 -18 -14 -29 -15 -12
-1 -22 -5 -22 -9 0 -4 -3 -7 -7 -6 -5 2 -28 -6 -53 -16 -25 -11 -48 -19 -52
-18 -5 1 -8 -3 -8 -10 0 -6 -3 -8 -7 -5 -3 4 -17 0 -31 -9 -13 -9 -22 -12 -19
-7 3 5 -20 -3 -51 -18 -31 -15 -60 -25 -64 -22 -5 2 -8 -1 -8 -8 0 -7 -3 -9
-6 -6 -4 3 -16 1 -28 -6 -11 -6 -25 -13 -31 -13 -26 -4 -55 -17 -55 -25 0 -4
-9 -6 -20 -4 -11 2 -22 0 -25 -6 -4 -5 -15 -14 -27 -20 -16 -9 -19 -8 -12 3 6
10 5 11 -7 2 -8 -6 -45 -24 -84 -39 -38 -15 -75 -31 -81 -36 -6 -5 -23 -10
-38 -11 -14 -1 -26 -5 -26 -9 0 -8 -59 -29 -87 -31 -7 -1 -13 -5 -13 -10 0 -5
-4 -7 -9 -3 -5 3 -12 1 -16 -5 -4 -6 -11 -8 -16 -5 -5 4 -9 1 -9 -6 0 -7 -3
-9 -7 -6 -3 4 -16 1 -27 -6 -12 -8 -29 -13 -38 -11 -10 1 -18 -1 -18 -6 0 -8
-38 -23 -52 -21 -5 1 -8 -4 -8 -11 0 -6 -3 -9 -6 -5 -4 3 -19 0 -34 -8 -15 -8
-30 -12 -33 -8 -3 3 -14 -2 -23 -11 -9 -10 -23 -15 -30 -12 -8 3 -14 1 -14 -3
0 -10 -23 -21 -60 -28 -13 -2 -27 -7 -30 -11 -3 -4 -11 -8 -17 -9 -7 -2 -19
-4 -25 -5 -7 -2 -16 -7 -20 -12 -3 -5 -15 -10 -26 -11 -11 -1 -27 -7 -36 -14
-9 -8 -16 -11 -16 -7 0 3 -16 -3 -36 -14 -19 -11 -32 -15 -29 -9 4 6 -4 3 -18
-6 -15 -9 -31 -14 -37 -10 -5 3 -10 2 -10 -4 0 -9 -22 -19 -45 -22 -5 0 -16
-5 -22 -11 -7 -6 -13 -7 -13 -2 0 5 -4 3 -9 -5 -5 -7 -21 -13 -36 -13 -14 0
-29 -7 -32 -14 -3 -8 -8 -12 -12 -9 -4 2 -21 -3 -37 -11 -16 -9 -38 -18 -48
-20 -11 -2 -22 -7 -25 -11 -6 -8 -14 -11 -55 -19 -10 -2 -24 -8 -32 -15 -8 -6
-14 -8 -14 -4 0 4 -6 3 -12 -2 -11 -9 -79 -35 -98 -38 -3 0 -20 -9 -38 -18
-18 -10 -38 -15 -44 -11 -7 4 -8 3 -4 -4 4 -7 1 -13 -8 -13 -25 -2 -30 -4 -43
-12 -7 -5 -18 -5 -25 -1 -7 4 -8 3 -4 -4 4 -7 1 -13 -6 -14 -36 -4 -78 -19
-78 -29 0 -4 -9 -6 -20 -4 -11 2 -20 -1 -20 -6 0 -6 -4 -7 -10 -4 -5 3 -10 2
-10 -3 0 -6 -15 -13 -32 -16 -18 -3 -48 -15 -66 -26 -26 -16 -31 -24 -23 -34
6 -7 8 -16 4 -19 -3 -4 -1 -7 6 -7 7 0 9 -4 6 -10 -3 -5 -2 -10 2 -10 5 0 10
-15 11 -32 2 -18 7 -35 12 -36 6 -2 8 -8 4 -13 -3 -5 0 -9 6 -9 7 0 10 -7 7
-15 -4 -8 -2 -17 3 -20 6 -4 10 -15 10 -26 0 -10 5 -19 11 -19 5 0 7 -5 4 -10
-19 -31 48 -46 82 -19 7 6 16 8 22 5 5 -3 12 1 15 10 4 9 9 14 13 11 3 -3 20
1 37 10 17 10 33 17 36 18 3 0 11 4 19 9 10 7 12 6 6 -3 -5 -9 1 -8 16 2 34
22 136 56 145 49 4 -4 4 -2 1 4 -7 12 36 29 60 25 7 -1 13 3 13 9 0 6 4 8 10
5 5 -3 10 -1 10 4 0 6 11 11 24 11 14 0 31 6 38 13 13 11 26 16 54 21 7 1 19
8 28 15 9 7 16 11 16 8 0 -3 14 -1 30 4 16 6 30 15 30 19 0 5 11 7 25 6 13 -2
22 1 19 5 -3 5 1 9 9 9 8 0 34 9 58 19 24 11 47 17 51 15 4 -3 8 0 8 5 0 6 3
10 8 9 4 -1 17 3 30 10 12 7 22 10 22 7 0 -4 14 4 32 16 17 13 28 18 24 11 -7
-12 98 32 123 52 12 9 13 8 7 -3 -6 -8 0 -7 18 4 14 10 26 13 26 9 0 -5 5 -2
10 8 6 10 20 15 35 13 14 -1 28 2 31 6 10 17 78 41 82 29 2 -5 7 -8 12 -5 5 3
7 -6 6 -20 -2 -14 3 -30 11 -37 8 -6 12 -17 9 -24 -3 -7 2 -18 9 -24 8 -7 13
-16 10 -20 -3 -4 5 -20 17 -36 13 -15 16 -24 8 -19 -8 5 -5 -4 8 -19 12 -16
19 -32 16 -37 -3 -5 -2 -9 3 -9 4 0 14 -15 22 -33 8 -17 21 -41 30 -51 10 -12
11 -16 3 -12 -8 5 -3 -9 11 -30 13 -22 27 -49 31 -62 4 -12 11 -20 16 -17 4 3
13 -7 19 -23 22 -53 57 -112 64 -105 4 3 8 1 8 -5 4 -33 6 -37 18 -34 7 1 10
-1 7 -6 -3 -5 4 -19 15 -30 11 -12 17 -22 14 -22 -3 0 3 -10 14 -22 11 -11 18
-26 14 -31 -3 -6 -1 -7 6 -3 6 4 14 0 18 -11 7 -20 69 -96 121 -151 17 -18 32
-38 32 -43 0 -6 5 -7 10 -4 6 3 10 0 10 -7 0 -7 9 -19 20 -26 12 -7 19 -16 16
-20 -2 -4 13 -20 35 -36 21 -17 39 -35 39 -42 0 -7 5 -16 12 -20 7 -5 8 -2 3
7 -4 8 7 -2 26 -21 18 -19 32 -39 31 -43 -1 -5 1 -6 6 -3 4 2 16 -6 26 -20 11
-13 25 -24 33 -24 7 0 16 -6 19 -13 2 -7 32 -33 65 -57 33 -25 74 -57 92 -72
18 -15 37 -28 43 -28 7 0 14 -6 17 -13 3 -6 22 -21 43 -32 22 -11 43 -26 47
-33 5 -7 12 -10 18 -7 5 4 9 1 9 -5 0 -6 16 -18 35 -26 19 -8 35 -19 35 -24 0
-6 3 -9 8 -8 12 4 82 -34 82 -44 0 -5 4 -7 9 -3 5 3 16 -2 25 -10 8 -9 18 -15
21 -14 12 3 65 -24 65 -33 0 -5 4 -7 9 -3 5 3 17 -2 25 -11 9 -8 16 -12 16 -8
0 4 10 -1 22 -12 12 -10 19 -14 15 -8 -4 6 25 -4 63 -22 38 -19 73 -34 77 -33
14 2 53 -13 53 -20 0 -4 6 -8 13 -9 6 0 21 -3 32 -6 11 -2 26 -5 33 -5 7 -1
11 -5 8 -10 -3 -5 0 -9 7 -8 40 1 58 -4 51 -15 -5 -7 -2 -9 8 -5 9 3 19 3 22
-1 4 -3 22 -7 41 -7 19 -1 41 -8 50 -15 8 -7 15 -9 15 -5 0 4 6 3 13 -2 6 -5
22 -8 35 -7 12 0 22 -3 22 -7 0 -5 13 -9 28 -9 16 0 32 -3 36 -7 3 -4 24 -8
46 -9 21 -1 44 -5 51 -9 11 -7 70 -14 147 -18 17 -1 32 -4 32 -7 0 -9 103 -12
335 -11 194 0 310 4 310 11 0 2 62 8 128 13 9 1 17 4 17 8 0 3 11 5 25 4 14
-2 25 0 25 4 0 4 15 7 33 8 53 3 96 11 165 32 17 5 32 7 32 4 0 -3 6 -1 13 5
7 6 28 14 47 17 19 4 40 8 45 9 6 1 16 5 23 9 7 5 24 11 39 13 15 3 32 9 38
14 7 5 21 11 32 13 12 2 29 9 39 17 16 13 17 13 9 0 -7 -13 -6 -13 7 -2 9 7
29 15 44 18 16 3 31 8 34 12 11 15 51 32 60 27 6 -4 10 -3 10 2 0 4 11 13 25
20 19 8 23 8 18 0 -3 -7 3 -4 14 6 11 9 23 14 26 10 4 -3 7 -1 7 5 0 9 58 35
85 37 6 1 9 7 7 14 -1 7 2 10 7 7 5 -4 12 -2 16 4 4 6 11 8 16 5 5 -4 9 -2 9
3 0 9 50 37 63 34 4 -1 7 5 7 13 0 9 6 12 15 9 8 -4 15 -2 15 3 0 5 16 17 35
26 19 9 35 22 35 29 0 6 3 9 6 5 4 -3 27 8 53 26 25 17 49 31 54 29 4 -1 7 5
7 13 0 8 4 14 8 12 8 -2 39 21 122 92 22 18 40 30 40 27 0 -4 6 -1 14 6 8 7
11 17 8 22 -3 5 -1 6 5 3 5 -3 25 9 43 28 18 19 36 32 40 30 4 -3 14 3 21 13
13 16 12 16 -6 3 -11 -8 5 10 35 40 30 30 58 54 61 52 3 -1 12 9 19 22 7 13
17 22 22 19 4 -3 8 -1 8 5 0 5 16 26 35 45 19 20 35 41 35 46 0 6 7 10 16 10
8 0 13 4 10 9 -4 5 14 30 39 56 26 26 40 44 33 40 -7 -4 -3 2 10 13 12 11 22
23 22 27 0 8 69 95 88 112 7 6 13 14 13 17 -2 19 0 29 5 23 4 -3 14 8 24 26
42 79 56 102 70 114 8 7 11 13 7 13 -10 0 24 60 34 60 4 0 10 7 13 16 4 10 2
13 -6 8 -6 -4 0 8 15 28 15 19 27 39 27 44 0 19 48 103 55 96 5 -4 5 -2 1 5
-4 7 7 37 23 68 16 30 24 52 18 48 -7 -3 -3 4 8 17 11 13 15 20 8 17 -8 -5 -8
-1 0 18 7 14 15 25 19 25 4 0 5 6 2 14 -3 8 -1 17 5 20 6 4 8 13 4 21 -3 8 1
15 8 15 7 0 10 3 6 6 -3 4 0 19 8 34 8 15 11 30 8 33 -3 4 -1 12 5 20 6 7 13
24 16 37 3 14 10 41 16 60 10 31 18 63 24 95 1 6 6 16 10 24 7 10 5 12 -3 6
-10 -6 -10 -3 0 16 7 13 14 40 16 59 5 49 11 85 13 85 5 0 21 155 22 228 1 31
5 57 8 57 4 0 5 87 3 193 -4 256 -7 327 -14 327 -3 0 -6 20 -7 45 -4 74 -6 85
-17 81 -5 -3 -27 -10 -47 -17 -21 -7 -38 -16 -38 -22 0 -5 -7 -7 -15 -3 -8 3
-15 0 -15 -6 0 -6 -3 -8 -7 -5 -3 4 -15 -1 -26 -10 -11 -10 -17 -12 -13 -5 4
6 -9 3 -28 -9 -20 -12 -36 -18 -36 -14 0 4 -6 2 -13 -4 -8 -6 -16 -9 -18 -6
-3 2 -4 -19 -3 -48 1 -29 3 -52 4 -52 8 0 11 -73 12 -250 1 -166 -3 -250 -12
-250 -1 0 -3 -25 -5 -55 -6 -81 -13 -139 -20 -150 -3 -5 -8 -24 -10 -42 -3
-18 -7 -51 -10 -72 -3 -21 -8 -43 -11 -48 -5 -8 -13 -42 -19 -78 -1 -8 -8 -28
-14 -45 -7 -16 -14 -38 -17 -49 -2 -10 -9 -25 -16 -34 -11 -13 -11 -14 2 -7
13 8 13 7 1 -8 -7 -9 -10 -17 -6 -17 5 0 1 -8 -8 -18 -10 -10 -14 -22 -11 -25
4 -4 1 -13 -6 -22 -7 -8 -10 -15 -6 -15 4 0 -1 -11 -10 -25 -9 -14 -13 -25
-10 -25 4 0 -3 -18 -14 -40 -11 -22 -17 -40 -13 -40 5 0 3 -4 -2 -8 -6 -4 -17
-20 -24 -37 -18 -37 -17 -35 -26 -62 -4 -13 -11 -23 -16 -23 -5 0 -9 -3 -8 -7
2 -15 -13 -53 -21 -53 -5 0 -12 -10 -16 -22 -3 -13 -15 -35 -26 -51 -11 -15
-16 -27 -13 -27 4 0 0 -7 -7 -15 -32 -36 -43 -50 -40 -53 4 -4 -24 -45 -46
-68 -7 -8 -10 -14 -7 -14 4 0 -5 -14 -19 -31 -14 -17 -26 -35 -26 -40 0 -6 -4
-7 -10 -4 -5 3 -10 -1 -10 -9 0 -9 -14 -29 -31 -46 -18 -16 -28 -30 -24 -30 7
0 -39 -53 -97 -111 -16 -15 -28 -32 -28 -39 0 -6 -3 -10 -7 -8 -8 4 -63 -48
-59 -54 2 -2 -13 -19 -33 -38 -19 -19 -31 -29 -26 -21 5 10 4 12 -3 7 -7 -4
-12 -14 -12 -22 0 -8 -4 -13 -9 -10 -5 4 -19 -6 -31 -21 -12 -16 -19 -21 -15
-13 4 8 -1 6 -9 -4 -9 -11 -16 -24 -16 -29 0 -4 -3 -6 -7 -4 -10 6 -34 -19
-26 -27 4 -3 0 -6 -7 -6 -7 0 -29 -12 -49 -27 -20 -16 -39 -28 -43 -28 -4 0
-13 -7 -20 -16 -18 -22 -162 -124 -152 -107 4 7 -11 -2 -34 -20 -25 -20 -47
-30 -54 -26 -7 4 -10 3 -5 -1 6 -7 -63 -54 -87 -58 -5 -1 -18 -9 -28 -17 -10
-8 -22 -15 -26 -16 -4 0 -20 -6 -37 -13 -16 -7 -31 -11 -31 -9 -1 2 -10 -4
-20 -13 -11 -10 -41 -24 -69 -34 -27 -9 -60 -23 -72 -31 -13 -8 -23 -12 -23
-9 0 3 -15 -1 -34 -9 -19 -8 -37 -12 -40 -8 -3 3 -6 0 -6 -7 0 -7 -3 -10 -7
-8 -5 3 -19 0 -33 -6 -33 -13 -51 -18 -75 -20 -11 -1 -26 -6 -32 -10 -7 -4
-27 -10 -45 -13 -57 -9 -62 -10 -88 -21 -14 -6 -36 -10 -50 -9 -14 1 -29 0
-35 -3 -5 -3 -13 -6 -17 -7 -5 -1 -9 -3 -10 -4 -2 -1 -14 -4 -28 -5 -14 -2
-50 -6 -80 -10 -30 -4 -71 -8 -90 -9 -20 -1 -40 -4 -45 -7 -25 -13 -460 -12
-460 1 0 1 -22 3 -50 6 -93 9 -120 12 -125 14 -3 1 -13 1 -24 0 -10 -1 -16 2
-13 7 3 5 -8 9 -26 8 -18 -1 -38 3 -44 8 -7 5 -13 7 -13 4 0 -3 -17 -1 -37 5
-35 8 -60 14 -103 22 -8 1 -28 8 -43 14 -16 7 -34 12 -42 12 -8 0 -26 5 -42
11 -15 6 -30 11 -33 11 -3 1 -19 7 -36 14 -17 7 -34 10 -38 7 -3 -4 -6 -1 -6
5 0 7 -3 11 -7 10 -5 0 -16 2 -25 5 -10 4 -26 10 -35 14 -10 3 -20 7 -23 8 -3
1 -23 10 -45 20 -22 10 -42 19 -45 20 -17 3 -70 31 -70 37 0 5 -9 8 -19 8 -11
0 -26 7 -34 15 -8 8 -17 11 -21 8 -3 -4 -6 -1 -6 5 0 7 -3 11 -7 11 -20 -3
-33 2 -33 14 0 7 -9 13 -19 14 -27 2 -113 58 -104 68 5 4 3 5 -4 1 -6 -3 -14
-2 -18 4 -4 6 -11 8 -16 5 -5 -4 -9 -2 -9 2 0 5 -15 17 -32 28 -18 10 -42 27
-52 37 -11 10 -26 18 -33 18 -8 0 -11 5 -8 10 3 6 -1 10 -9 10 -9 0 -16 4 -16
9 0 5 -8 12 -17 15 -10 4 -36 22 -58 42 -83 75 -95 84 -104 84 -6 0 -13 5 -17
12 -5 7 -3 8 7 3 8 -5 1 5 -16 21 -16 16 -33 28 -37 27 -4 -2 -9 6 -13 17 -3
11 -12 20 -18 20 -7 0 -21 13 -32 29 -10 16 -23 27 -27 25 -4 -3 -8 -1 -8 4 0
5 -15 26 -32 45 -40 45 -98 112 -118 139 -8 11 -23 29 -33 39 -9 11 -15 19
-12 19 3 0 -2 8 -10 17 -52 64 -74 97 -69 104 3 5 0 9 -6 9 -6 0 -15 11 -20
25 -5 14 -14 25 -20 25 -6 0 -9 4 -6 9 4 5 1 11 -4 13 -6 2 -12 13 -13 25 0
12 -4 20 -8 18 -3 -3 -12 8 -20 23 -7 15 -22 40 -33 56 -13 20 -15 27 -5 22 7
-4 5 0 -5 8 -11 9 -17 19 -13 22 4 4 -1 13 -11 21 -11 10 -12 12 -2 8 10 -4 9
-2 -2 8 -10 8 -15 16 -13 19 3 3 -1 11 -10 18 -8 7 -15 21 -15 31 0 9 -7 25
-16 33 -8 9 -12 16 -8 16 3 0 1 7 -6 15 -6 8 -9 18 -6 24 3 5 -1 11 -9 15 -8
3 -12 12 -9 21 3 8 2 15 -3 15 -5 0 -9 10 -9 23 1 23 40 52 56 42 6 -3 10 -1
10 4 0 6 7 11 15 11 8 0 15 4 15 9 0 6 9 8 20 6 11 -2 20 0 20 6 0 5 3 8 8 8
4 -1 23 4 42 12 19 7 38 12 43 11 4 -1 7 3 7 8 0 5 3 9 8 8 4 -1 25 6 47 16
22 9 48 18 58 19 9 1 17 4 17 8 0 6 25 15 60 24 3 0 16 7 28 14 13 7 26 10 29
7 3 -3 12 2 20 10 8 8 18 12 23 9 5 -3 11 -1 15 5 4 6 11 8 16 5 5 -4 9 -2 9
4 0 6 7 7 17 4 11 -4 14 -3 9 5 -7 12 4 15 46 15 10 0 15 4 12 8 -3 5 1 9 8 9
7 0 26 7 42 15 15 8 38 17 50 19 12 2 45 15 74 29 29 14 49 21 46 15 -4 -6 4
-3 17 5 23 16 28 17 50 17 5 0 7 5 3 12 -5 7 -2 9 8 5 9 -3 32 3 52 14 20 10
43 19 51 19 8 0 15 4 15 10 0 5 3 9 8 8 4 -2 21 2 37 9 64 24 70 26 77 27 3 1
10 4 14 8 4 5 16 8 26 8 10 0 18 4 18 9 0 10 19 9 36 -1 13 -9 13 -1186 0
-1207 -6 -9 -5 -12 2 -7 5 3 12 1 14 -6 5 -14 261 -20 288 -7 13 6 15 53 15
353 0 325 2 357 26 352 3 0 13 5 22 13 10 7 17 10 17 6 0 -4 7 -1 16 6 9 7 25
14 37 16 11 2 26 8 34 14 7 6 13 8 13 4 0 -5 9 0 20 10 11 10 20 15 20 10 0
-4 7 -2 15 5 8 7 15 9 15 6 0 -4 7 0 16 8 8 9 20 14 25 11 5 -4 9 -1 9 5 0 7
7 10 15 6 8 -3 15 -1 15 4 0 5 16 12 35 16 20 4 32 10 28 17 -3 6 -1 7 6 3 6
-4 18 -2 26 4 8 7 15 10 15 6 0 -4 13 0 29 8 16 9 31 12 35 9 3 -4 6 -1 6 5 0
7 3 11 8 10 11 -3 82 25 82 32 0 4 7 7 15 8 8 1 22 3 30 4 8 1 15 5 15 9 0 4
11 10 25 13 14 4 50 18 79 32 30 14 60 27 68 28 7 2 26 8 41 14 16 7 33 12 38
12 5 0 9 5 9 12 0 6 3 9 6 5 4 -3 23 2 44 13 21 11 40 16 44 13 3 -4 6 0 6 7
0 7 3 11 6 7 4 -3 21 1 38 10 17 9 40 18 50 20 11 2 25 8 31 13 7 5 15 7 18 3
4 -3 7 -1 7 5 0 7 11 12 24 12 13 0 26 5 28 10 2 6 12 12 23 14 42 8 50 11 56
19 3 5 12 9 20 11 31 5 59 18 59 27 0 5 3 8 8 8 22 -4 52 3 64 14 7 6 22 14
33 15 11 2 22 8 23 13 2 5 8 7 13 4 5 -3 19 0 31 7 13 7 26 11 31 10 4 -1 7 3
7 8 0 6 11 10 25 10 14 0 25 5 25 10 0 6 8 10 19 10 10 0 24 7 31 15 7 9 19
14 27 11 7 -3 13 0 13 6 0 6 3 8 7 5 3 -4 13 -1 21 6 13 10 14 9 7 -3 -7 -12
-6 -13 6 -3 8 6 19 9 25 5 6 -5 10 -247 9 -705 0 -464 3 -701 10 -706 5 -4 75
-7 155 -6 l145 0 0 778 c0 834 -2 796 48 797 9 0 17 4 17 9 0 9 57 27 73 23 5
-2 6 2 2 8 -5 8 19 15 28 8 2 -2 15 5 31 15 15 10 36 20 47 22 11 2 49 18 85
35 36 17 69 28 75 25 5 -4 12 1 15 10 4 9 13 14 20 11 8 -3 14 -1 14 5 0 6 4
8 9 5 5 -3 14 1 21 9 7 8 16 12 22 9 5 -3 15 0 23 6 8 7 15 9 15 5 0 -5 8 -2
18 6 27 22 65 42 57 30 -9 -16 1 -13 19 4 8 8 23 16 33 18 10 2 28 9 41 15 12
7 22 9 22 5 0 -4 4 -2 9 6 5 8 17 16 25 18 37 7 77 22 127 49 14 7 29 11 33 7
3 -3 6 0 6 7 0 7 3 11 6 7 5 -5 39 9 117 48 15 8 25 11 22 6 -3 -5 21 4 52 20
31 16 65 29 75 29 10 0 21 7 24 15 4 8 10 13 14 10 5 -3 37 8 73 24 36 16 68
27 71 24 3 -4 6 -1 6 5 0 7 9 12 20 12 11 0 20 4 20 9 0 6 9 8 20 6 12 -2 23
2 26 8 2 7 14 14 26 14 12 1 25 8 29 15 5 7 9 9 9 4 0 -5 8 -2 17 5 14 12 16
12 9 -1 -7 -13 -6 -13 6 0 13 15 31 22 56 23 6 0 12 4 12 7 0 4 28 18 63 31
34 13 73 29 87 36 14 7 31 13 38 13 6 0 12 4 12 8 0 5 7 9 15 10 8 1 22 3 30
4 8 1 17 8 19 15 3 8 11 11 16 8 6 -4 17 -1 25 5 8 7 15 10 15 7 0 -4 20 4 45
18 25 13 42 18 38 12 -4 -7 1 -5 11 3 10 8 25 15 33 16 8 2 22 9 31 16 10 8
24 14 32 13 8 0 20 6 27 15 7 8 13 11 13 7 0 -4 10 -2 23 5 12 7 24 13 27 14
3 0 14 4 25 8 11 5 27 10 35 14 8 3 18 4 23 4 4 -1 7 3 7 8 0 5 3 9 8 8 4 -1
25 6 47 16 22 10 47 19 55 21 8 2 17 4 20 5 3 1 8 2 13 1 4 0 7 4 7 10 0 6 7
8 16 5 10 -4 13 -2 8 6 -5 8 -2 9 9 5 10 -4 17 -1 17 5 0 6 3 9 6 5 3 -3 22 3
42 13 21 10 44 20 52 22 8 2 18 7 21 11 3 5 12 10 20 11 41 8 69 19 69 27 0 5
11 9 24 9 13 0 29 7 36 15 6 8 15 14 18 13 16 -3 62 15 62 25 0 6 3 7 6 4 4
-3 16 -1 28 5 11 7 25 11 29 10 16 -5 34 24 30 48 -2 14 -5 37 -6 52 -1 14 -6
24 -11 20 -5 -3 -7 2 -3 11 3 10 2 17 -2 17 -5 0 -12 7 -15 16 -4 9 -2 13 5 8
6 -4 5 4 -2 17 -7 13 -12 30 -11 37 2 6 -2 12 -9 12 -6 0 -9 6 -6 14 13 32
-34 61 -73 46 -3 -1 -8 -2 -12 -1 -5 0 -8 -3 -8 -8 0 -9 -41 -27 -48 -22 -2 2
-14 -5 -28 -13 -13 -9 -24 -14 -24 -10 0 4 -7 1 -15 -6 -8 -7 -15 -9 -15 -5 0
5 -8 0 -19 -9 -10 -9 -28 -18 -40 -19 -11 -1 -21 -5 -21 -9 0 -4 -3 -7 -7 -7
-5 1 -24 -4 -43 -12 -19 -7 -38 -12 -42 -11 -5 1 -8 -2 -8 -6 0 -4 -10 -8 -21
-9 -12 -1 -30 -10 -41 -20 -11 -10 -21 -17 -22 -15 0 1 -17 -3 -36 -9 -19 -7
-35 -11 -35 -8 0 2 -11 -5 -23 -17 -13 -12 -33 -20 -47 -18 -14 1 -23 -1 -21
-5 3 -4 -19 -15 -47 -25 -29 -10 -79 -31 -112 -46 -33 -16 -72 -32 -87 -35
-15 -4 -32 -13 -39 -21 -6 -8 -15 -11 -20 -8 -5 3 -19 -1 -31 -8 -13 -7 -26
-11 -30 -10 -5 1 -8 -2 -8 -8 0 -5 -7 -7 -15 -4 -8 4 -15 1 -15 -6 0 -6 -4 -9
-9 -6 -5 4 -11 2 -13 -4 -1 -5 -12 -11 -23 -13 -11 -2 -36 -11 -56 -20 -20 -9
-42 -17 -50 -19 -8 -2 -17 -6 -20 -10 -3 -5 -17 -9 -31 -10 -15 -1 -24 -6 -22
-10 3 -4 2 -8 -3 -9 -4 0 -16 -2 -25 -4 -16 -3 -30 8 -34 25 -5 30 -20 69 -32
88 -8 12 -12 25 -9 28 3 3 -5 25 -18 49 -13 23 -21 45 -18 49 3 3 -1 14 -10
24 -10 10 -14 22 -10 25 3 4 1 7 -6 7 -7 0 -10 4 -7 9 3 5 -5 24 -18 43 -12
19 -26 47 -30 62 -4 16 -11 24 -18 20 -7 -5 -8 -3 -3 6 4 7 4 15 -1 19 -5 3
-17 22 -26 41 -46 90 -86 159 -91 153 -3 -3 -9 6 -13 21 -3 14 -10 26 -16 26
-5 0 -6 5 -3 10 3 6 2 10 -4 10 -5 0 -12 8 -15 18 -3 9 -22 35 -41 57 -20 22
-43 52 -52 68 -10 15 -21 27 -26 27 -4 0 -5 5 -2 10 3 6 -1 10 -10 10 -9 0
-13 5 -10 10 6 10 -31 56 -87 108 -15 14 -25 29 -22 33 3 5 -3 9 -12 9 -10 0
-15 3 -11 6 7 7 -29 44 -43 44 -5 0 -10 4 -10 8 0 4 -20 29 -45 54 -25 26 -45
44 -45 40 0 -4 -9 7 -20 23 -11 17 -20 26 -20 22 0 -5 -16 8 -35 29 -19 20
-35 34 -35 31 0 -4 -16 9 -35 29 -19 19 -35 32 -35 29 0 -3 -12 6 -27 20 -16
14 -36 28 -45 31 -10 3 -18 10 -18 15 0 5 -7 9 -16 9 -8 0 -12 5 -9 10 3 6 -1
10 -9 10 -9 0 -16 5 -16 11 0 5 -4 7 -10 4 -5 -3 -10 -1 -10 5 0 6 -4 8 -10 5
-5 -3 -10 1 -10 10 0 9 -4 13 -10 10 -5 -3 -10 -1 -10 4 0 6 -7 11 -15 11 -8
0 -15 4 -15 8 0 5 -12 15 -27 23 -38 19 -87 52 -91 62 -2 4 -8 5 -13 1 -5 -3
-9 0 -9 6 0 6 -4 8 -10 5 -5 -3 -10 -1 -10 4 0 6 -9 11 -19 11 -11 0 -21 5
-23 11 -2 5 -10 11 -18 13 -26 4 -80 36 -80 47 0 6 -4 8 -9 5 -5 -3 -30 5 -56
19 -27 13 -53 21 -58 18 -6 -4 -7 -1 -2 7 6 10 4 12 -8 7 -10 -3 -17 -3 -17 2
0 5 -20 15 -45 22 -25 7 -45 18 -45 23 0 5 -3 6 -6 3 -4 -3 -16 -1 -28 5 -22
13 -28 15 -50 17 -8 0 -21 7 -28 14 -7 7 -24 13 -38 14 -14 0 -38 6 -55 13
-16 7 -37 14 -45 16 -34 6 -46 10 -57 17 -7 5 -17 5 -23 2 -5 -3 -10 -1 -10 5
0 6 -4 9 -9 6 -5 -4 -22 -1 -38 5 -26 11 -59 17 -125 22 -16 1 -28 5 -28 8 0
3 -6 6 -12 7 -7 1 -29 4 -48 6 -19 2 -35 5 -35 6 0 1 -25 3 -55 4 -30 1 -62 6
-70 11 -13 9 -575 17 -583 9z"/>
</g>
</svg>
