<?xml version="1.0" encoding="utf-8"?>
<svg width="472px" height="376px" viewBox="0 0 472 376" version="1.1" xmlns:xlink="http://www.w3.org/1999/xlink" xmlns="http://www.w3.org/2000/svg">
  <desc>Created with Lunacy</desc>
  <g id="Group">
    <path d="M35.999 0L432.001 0Q432.885 0 433.767 0.0433624Q434.65 0.0867247 435.53 0.173345Q436.409 0.259965 437.283 0.389635Q438.157 0.519304 439.024 0.691711Q439.891 0.864117 440.748 1.07884Q441.605 1.29357 442.451 1.5501Q443.297 1.80664 444.129 2.10436Q444.961 2.40207 445.777 2.74026Q446.594 3.07845 447.392 3.45629Q448.191 3.83413 448.971 4.25072Q449.75 4.6673 450.508 5.12163Q451.266 5.57595 452.001 6.06692Q452.736 6.5579 453.446 7.08433Q454.155 7.61077 454.839 8.1714Q455.522 8.73203 456.176 9.3255Q456.831 9.91897 457.456 10.5439Q458.081 11.1688 458.674 11.8235Q459.268 12.4783 459.829 13.1615Q460.389 13.8446 460.916 14.5544Q461.442 15.2642 461.933 15.999Q462.424 16.7338 462.878 17.4918Q463.333 18.2498 463.749 19.0292Q464.166 19.8086 464.544 20.6074Q464.921 21.4063 465.26 22.2228Q465.598 23.0392 465.896 23.8713Q466.193 24.7034 466.45 25.549Q466.706 26.3947 466.921 27.252Q467.136 28.1092 467.308 28.9759Q467.481 29.8427 467.61 30.7168Q467.74 31.591 467.827 32.4705Q467.913 33.3499 467.957 34.2326Q468 35.1153 468 35.999L468 44.001Q468 44.8847 467.957 45.7674Q467.913 46.65 467.827 47.5295Q467.74 48.409 467.61 49.2831Q467.481 50.1573 467.308 51.0241Q467.136 51.8908 466.921 52.748Q466.706 53.6053 466.45 54.451Q466.193 55.2966 465.896 56.1287Q465.598 56.9608 465.26 57.7772Q464.921 58.5937 464.544 59.3926Q464.166 60.1914 463.749 60.9708Q463.333 61.7502 462.878 62.5082Q462.424 63.2662 461.933 64.001Q461.442 64.7358 460.916 65.4456Q460.389 66.1554 459.829 66.8385Q459.268 67.5217 458.674 68.1765Q458.081 68.8312 457.456 69.4561Q456.831 70.081 456.176 70.6745Q455.522 71.268 454.839 71.8286Q454.155 72.3892 453.445 72.9157Q452.736 73.4421 452.001 73.9331Q451.266 74.424 450.508 74.8784Q449.75 75.3327 448.971 75.7493Q448.191 76.1659 447.392 76.5437Q446.594 76.9215 445.777 77.2597Q444.961 77.5979 444.129 77.8956Q443.297 78.1933 442.451 78.4499Q441.605 78.7064 440.748 78.9211Q439.891 79.1359 439.024 79.3083Q438.157 79.4807 437.283 79.6104Q436.409 79.74 435.53 79.8267Q434.65 79.9133 433.767 79.9566Q432.885 80 432.001 80L35.999 80Q35.1153 80 34.2326 79.9566Q33.3499 79.9133 32.4705 79.8267Q31.591 79.74 30.7168 79.6104Q29.8427 79.4807 28.9759 79.3083Q28.1092 79.1359 27.252 78.9211Q26.3947 78.7064 25.549 78.4499Q24.7034 78.1933 23.8713 77.8956Q23.0392 77.5979 22.2228 77.2597Q21.4063 76.9215 20.6074 76.5437Q19.8086 76.1659 19.0292 75.7493Q18.2498 75.3327 17.4918 74.8784Q16.7338 74.424 15.999 73.9331Q15.2642 73.4421 14.5544 72.9157Q13.8446 72.3892 13.1615 71.8286Q12.4783 71.268 11.8235 70.6745Q11.1688 70.081 10.5439 69.4561Q9.91897 68.8312 9.3255 68.1765Q8.73203 67.5217 8.1714 66.8385Q7.61077 66.1554 7.08433 65.4456Q6.5579 64.7358 6.06693 64.001Q5.57595 63.2662 5.12163 62.5082Q4.6673 61.7502 4.25072 60.9708Q3.83413 60.1914 3.45629 59.3926Q3.07845 58.5937 2.74026 57.7772Q2.40207 56.9608 2.10436 56.1287Q1.80664 55.2966 1.5501 54.451Q1.29357 53.6053 1.07884 52.748Q0.864117 51.8908 0.691711 51.024Q0.519304 50.1573 0.389635 49.2831Q0.259965 48.409 0.173345 47.5295Q0.0867247 46.65 0.0433624 45.7674Q0 44.8847 0 44.001L0 35.999Q0 35.1153 0.0433624 34.2326Q0.0867247 33.3499 0.173345 32.4705Q0.259965 31.591 0.389635 30.7168Q0.519304 29.8427 0.691711 28.9759Q0.864117 28.1092 1.07884 27.252Q1.29357 26.3947 1.5501 25.549Q1.80664 24.7034 2.10436 23.8713Q2.40207 23.0392 2.74026 22.2228Q3.07845 21.4063 3.45629 20.6074Q3.83413 19.8086 4.25072 19.0292Q4.6673 18.2498 5.12163 17.4918Q5.57595 16.7338 6.06692 15.999Q6.5579 15.2642 7.08433 14.5544Q7.61077 13.8446 8.1714 13.1615Q8.73203 12.4783 9.3255 11.8235Q9.91897 11.1688 10.5439 10.5439Q11.1688 9.91897 11.8235 9.3255Q12.4783 8.73203 13.1615 8.1714Q13.8446 7.61077 14.5544 7.08433Q15.2642 6.5579 15.999 6.06693Q16.7338 5.57595 17.4918 5.12163Q18.2498 4.6673 19.0292 4.25072Q19.8086 3.83413 20.6074 3.45629Q21.4063 3.07845 22.2228 2.74026Q23.0392 2.40207 23.8713 2.10436Q24.7034 1.80664 25.549 1.5501Q26.3947 1.29357 27.252 1.07884Q28.1092 0.864117 28.9759 0.691711Q29.8427 0.519304 30.7168 0.389635Q31.591 0.259965 32.4705 0.173345Q33.3499 0.0867247 34.2326 0.0433624Q35.1153 0 35.999 0L35.999 0Z" transform="translate(4 0)" id="Rectangle" fill="#FFFFFF" stroke="none" />
    <path d="M35.999 0L432.001 0Q432.885 0 433.767 0.0433624Q434.65 0.0867247 435.53 0.173345Q436.409 0.259965 437.283 0.389635Q438.157 0.519304 439.024 0.691711Q439.891 0.864117 440.748 1.07884Q441.605 1.29357 442.451 1.5501Q443.297 1.80664 444.129 2.10436Q444.961 2.40207 445.777 2.74026Q446.594 3.07845 447.392 3.45629Q448.191 3.83413 448.971 4.25072Q449.75 4.6673 450.508 5.12163Q451.266 5.57595 452.001 6.06692Q452.736 6.5579 453.446 7.08433Q454.155 7.61077 454.839 8.1714Q455.522 8.73203 456.176 9.3255Q456.831 9.91897 457.456 10.5439Q458.081 11.1688 458.674 11.8235Q459.268 12.4783 459.829 13.1615Q460.389 13.8446 460.916 14.5544Q461.442 15.2642 461.933 15.999Q462.424 16.7338 462.878 17.4918Q463.333 18.2498 463.749 19.0292Q464.166 19.8086 464.544 20.6074Q464.921 21.4063 465.26 22.2228Q465.598 23.0392 465.896 23.8713Q466.193 24.7034 466.45 25.549Q466.706 26.3947 466.921 27.252Q467.136 28.1092 467.308 28.9759Q467.481 29.8427 467.61 30.7168Q467.74 31.591 467.827 32.4705Q467.913 33.3499 467.957 34.2326Q468 35.1153 468 35.999L468 44.001Q468 44.8847 467.957 45.7674Q467.913 46.65 467.827 47.5295Q467.74 48.409 467.61 49.2831Q467.481 50.1573 467.308 51.0241Q467.136 51.8908 466.921 52.748Q466.706 53.6053 466.45 54.451Q466.193 55.2966 465.896 56.1287Q465.598 56.9608 465.26 57.7772Q464.921 58.5937 464.544 59.3926Q464.166 60.1914 463.749 60.9708Q463.333 61.7502 462.878 62.5082Q462.424 63.2662 461.933 64.001Q461.442 64.7358 460.916 65.4456Q460.389 66.1554 459.829 66.8385Q459.268 67.5217 458.674 68.1765Q458.081 68.8312 457.456 69.4561Q456.831 70.081 456.176 70.6745Q455.522 71.268 454.839 71.8286Q454.155 72.3892 453.445 72.9157Q452.736 73.4421 452.001 73.9331Q451.266 74.424 450.508 74.8784Q449.75 75.3327 448.971 75.7493Q448.191 76.1659 447.392 76.5437Q446.594 76.9215 445.777 77.2597Q444.961 77.5979 444.129 77.8956Q443.297 78.1933 442.451 78.4499Q441.605 78.7064 440.748 78.9211Q439.891 79.1359 439.024 79.3083Q438.157 79.4807 437.283 79.6104Q436.409 79.74 435.53 79.8267Q434.65 79.9133 433.767 79.9566Q432.885 80 432.001 80L35.999 80Q35.1153 80 34.2326 79.9566Q33.3499 79.9133 32.4705 79.8267Q31.591 79.74 30.7168 79.6104Q29.8427 79.4807 28.9759 79.3083Q28.1092 79.1359 27.252 78.9211Q26.3947 78.7064 25.549 78.4499Q24.7034 78.1933 23.8713 77.8956Q23.0392 77.5979 22.2228 77.2597Q21.4063 76.9215 20.6074 76.5437Q19.8086 76.1659 19.0292 75.7493Q18.2498 75.3327 17.4918 74.8784Q16.7338 74.424 15.999 73.9331Q15.2642 73.4421 14.5544 72.9157Q13.8446 72.3892 13.1615 71.8286Q12.4783 71.268 11.8235 70.6745Q11.1688 70.081 10.5439 69.4561Q9.91897 68.8312 9.3255 68.1765Q8.73203 67.5217 8.1714 66.8385Q7.61077 66.1554 7.08433 65.4456Q6.5579 64.7358 6.06693 64.001Q5.57595 63.2662 5.12163 62.5082Q4.6673 61.7502 4.25072 60.9708Q3.83413 60.1914 3.45629 59.3926Q3.07845 58.5937 2.74026 57.7772Q2.40207 56.9608 2.10436 56.1287Q1.80664 55.2966 1.5501 54.451Q1.29357 53.6053 1.07884 52.748Q0.864117 51.8908 0.691711 51.024Q0.519304 50.1573 0.389635 49.2831Q0.259965 48.409 0.173345 47.5295Q0.0867247 46.65 0.0433624 45.7674Q0 44.8847 0 44.001L0 35.999Q0 35.1153 0.0433624 34.2326Q0.0867247 33.3499 0.173345 32.4705Q0.259965 31.591 0.389635 30.7168Q0.519304 29.8427 0.691711 28.9759Q0.864117 28.1092 1.07884 27.252Q1.29357 26.3947 1.5501 25.549Q1.80664 24.7034 2.10436 23.8713Q2.40207 23.0392 2.74026 22.2228Q3.07845 21.4063 3.45629 20.6074Q3.83413 19.8086 4.25072 19.0292Q4.6673 18.2498 5.12163 17.4918Q5.57595 16.7338 6.06692 15.999Q6.5579 15.2642 7.08433 14.5544Q7.61077 13.8446 8.1714 13.1615Q8.73203 12.4783 9.3255 11.8235Q9.91897 11.1688 10.5439 10.5439Q11.1688 9.91897 11.8235 9.3255Q12.4783 8.73203 13.1615 8.1714Q13.8446 7.61077 14.5544 7.08433Q15.2642 6.5579 15.999 6.06693Q16.7338 5.57595 17.4918 5.12163Q18.2498 4.6673 19.0292 4.25072Q19.8086 3.83413 20.6074 3.45629Q21.4063 3.07845 22.2228 2.74026Q23.0392 2.40207 23.8713 2.10436Q24.7034 1.80664 25.549 1.5501Q26.3947 1.29357 27.252 1.07884Q28.1092 0.864117 28.9759 0.691711Q29.8427 0.519304 30.7168 0.389635Q31.591 0.259965 32.4705 0.173345Q33.3499 0.0867247 34.2326 0.0433624Q35.1153 0 35.999 0L35.999 0Z" transform="translate(2 148)" id="Rectangle-Copy" fill="#FFFFFF" stroke="none" />
    <path d="M35.999 0L432.001 0Q432.885 0 433.767 0.0433624Q434.65 0.0867247 435.53 0.173345Q436.409 0.259965 437.283 0.389635Q438.157 0.519304 439.024 0.691711Q439.891 0.864117 440.748 1.07884Q441.605 1.29357 442.451 1.5501Q443.297 1.80664 444.129 2.10436Q444.961 2.40207 445.777 2.74026Q446.594 3.07845 447.392 3.45629Q448.191 3.83413 448.971 4.25072Q449.75 4.6673 450.508 5.12163Q451.266 5.57595 452.001 6.06692Q452.736 6.5579 453.446 7.08433Q454.155 7.61077 454.839 8.1714Q455.522 8.73203 456.176 9.3255Q456.831 9.91897 457.456 10.5439Q458.081 11.1688 458.674 11.8235Q459.268 12.4783 459.829 13.1615Q460.389 13.8446 460.916 14.5544Q461.442 15.2642 461.933 15.999Q462.424 16.7338 462.878 17.4918Q463.333 18.2498 463.749 19.0292Q464.166 19.8086 464.544 20.6074Q464.921 21.4063 465.26 22.2228Q465.598 23.0392 465.896 23.8713Q466.193 24.7034 466.45 25.549Q466.706 26.3947 466.921 27.252Q467.136 28.1092 467.308 28.9759Q467.481 29.8427 467.61 30.7168Q467.74 31.591 467.827 32.4705Q467.913 33.3499 467.957 34.2326Q468 35.1153 468 35.999L468 44.001Q468 44.8847 467.957 45.7674Q467.913 46.65 467.827 47.5295Q467.74 48.409 467.61 49.2831Q467.481 50.1573 467.308 51.0241Q467.136 51.8908 466.921 52.748Q466.706 53.6053 466.45 54.451Q466.193 55.2966 465.896 56.1287Q465.598 56.9608 465.26 57.7772Q464.921 58.5937 464.544 59.3926Q464.166 60.1914 463.749 60.9708Q463.333 61.7502 462.878 62.5082Q462.424 63.2662 461.933 64.001Q461.442 64.7358 460.916 65.4456Q460.389 66.1554 459.829 66.8385Q459.268 67.5217 458.674 68.1765Q458.081 68.8312 457.456 69.4561Q456.831 70.081 456.176 70.6745Q455.522 71.268 454.839 71.8286Q454.155 72.3892 453.445 72.9157Q452.736 73.4421 452.001 73.9331Q451.266 74.424 450.508 74.8784Q449.75 75.3327 448.971 75.7493Q448.191 76.1659 447.392 76.5437Q446.594 76.9215 445.777 77.2597Q444.961 77.5979 444.129 77.8956Q443.297 78.1933 442.451 78.4499Q441.605 78.7064 440.748 78.9211Q439.891 79.1359 439.024 79.3083Q438.157 79.4807 437.283 79.6104Q436.409 79.74 435.53 79.8267Q434.65 79.9133 433.767 79.9566Q432.885 80 432.001 80L35.999 80Q35.1153 80 34.2326 79.9566Q33.3499 79.9133 32.4705 79.8267Q31.591 79.74 30.7168 79.6104Q29.8427 79.4807 28.9759 79.3083Q28.1092 79.1359 27.252 78.9211Q26.3947 78.7064 25.549 78.4499Q24.7034 78.1933 23.8713 77.8956Q23.0392 77.5979 22.2228 77.2597Q21.4063 76.9215 20.6074 76.5437Q19.8086 76.1659 19.0292 75.7493Q18.2498 75.3327 17.4918 74.8784Q16.7338 74.424 15.999 73.9331Q15.2642 73.4421 14.5544 72.9157Q13.8446 72.3892 13.1615 71.8286Q12.4783 71.268 11.8235 70.6745Q11.1688 70.081 10.5439 69.4561Q9.91897 68.8312 9.3255 68.1765Q8.73203 67.5217 8.1714 66.8385Q7.61077 66.1554 7.08433 65.4456Q6.5579 64.7358 6.06693 64.001Q5.57595 63.2662 5.12163 62.5082Q4.6673 61.7502 4.25072 60.9708Q3.83413 60.1914 3.45629 59.3926Q3.07845 58.5937 2.74026 57.7772Q2.40207 56.9608 2.10436 56.1287Q1.80664 55.2966 1.5501 54.451Q1.29357 53.6053 1.07884 52.748Q0.864117 51.8908 0.691711 51.024Q0.519304 50.1573 0.389635 49.2831Q0.259965 48.409 0.173345 47.5295Q0.0867247 46.65 0.0433624 45.7674Q0 44.8847 0 44.001L0 35.999Q0 35.1153 0.0433624 34.2326Q0.0867247 33.3499 0.173345 32.4705Q0.259965 31.591 0.389635 30.7168Q0.519304 29.8427 0.691711 28.9759Q0.864117 28.1092 1.07884 27.252Q1.29357 26.3947 1.5501 25.549Q1.80664 24.7034 2.10436 23.8713Q2.40207 23.0392 2.74026 22.2228Q3.07845 21.4063 3.45629 20.6074Q3.83413 19.8086 4.25072 19.0292Q4.6673 18.2498 5.12163 17.4918Q5.57595 16.7338 6.06692 15.999Q6.5579 15.2642 7.08433 14.5544Q7.61077 13.8446 8.1714 13.1615Q8.73203 12.4783 9.3255 11.8235Q9.91897 11.1688 10.5439 10.5439Q11.1688 9.91897 11.8235 9.3255Q12.4783 8.73203 13.1615 8.1714Q13.8446 7.61077 14.5544 7.08433Q15.2642 6.5579 15.999 6.06693Q16.7338 5.57595 17.4918 5.12163Q18.2498 4.6673 19.0292 4.25072Q19.8086 3.83413 20.6074 3.45629Q21.4063 3.07845 22.2228 2.74026Q23.0392 2.40207 23.8713 2.10436Q24.7034 1.80664 25.549 1.5501Q26.3947 1.29357 27.252 1.07884Q28.1092 0.864117 28.9759 0.691711Q29.8427 0.519304 30.7168 0.389635Q31.591 0.259965 32.4705 0.173345Q33.3499 0.0867247 34.2326 0.0433624Q35.1153 0 35.999 0L35.999 0Z" transform="translate(0 296)" id="Rectangle-Copy-2" fill="#FFFFFF" stroke="none" />
  </g>
</svg>